Coda.ufo
<glyph name="exclam" format="1">
  <advance width="492"/>
  <unicode hex="0021"/>
  <outline>
    <contour>
      <point x="148" y="0" type="line" smooth="no"/>
      <point x="148" y="76"/>
      <point x="149" y="152"/>
      <point x="149" y="228" type="curve" smooth="no"/>
      <point x="345" y="228" type="line" smooth="no"/>
      <point x="345" y="152"/>
      <point x="346" y="76"/>
      <point x="346" y="0" type="curve" smooth="no"/>
    </contour>
    <contour>
      <point x="246" y="498" type="curve" smooth="yes"/>
      <point x="234" y="498"/>
      <point x="220" y="503"/>
      <point x="217" y="534" type="curve" smooth="yes"/>
      <point x="152" y="1217"/>
      <point x="138" y="1386"/>
      <point x="138" y="1418" type="curve" smooth="yes"/>
      <point x="138" y="1510"/>
      <point x="163" y="1556"/>
      <point x="246" y="1556" type="curve" smooth="yes"/>
      <point x="329" y="1556"/>
      <point x="354" y="1510"/>
      <point x="354" y="1418" type="curve" smooth="yes"/>
      <point x="354" y="1386"/>
      <point x="340" y="1217"/>
      <point x="275" y="534" type="curve" smooth="yes"/>
      <point x="272" y="503"/>
      <point x="258" y="498"/>
    </contour>
  </outline>
</glyph>
<glyph name="quotedbl" format="1">
  <advance width="697"/>
  <unicode hex="0022"/>
  <outline>
    <contour>
      <point x="200" y="929" type="line"/>
      <point x="200" y="929"/>
      <point x="125" y="1284"/>
      <point x="125" y="1363" type="curve" smooth="yes"/>
      <point x="125" y="1460"/>
      <point x="139" y="1500"/>
      <point x="212" y="1500" type="curve" smooth="yes"/>
      <point x="268" y="1500"/>
      <point x="298" y="1460"/>
      <point x="298" y="1378" type="curve" smooth="yes"/>
      <point x="298" y="1295"/>
      <point x="225" y="923"/>
      <point x="225" y="923" type="curve"/>
    </contour>
    <contour>
      <point x="479" y="929" type="line"/>
      <point x="479" y="929"/>
      <point x="404" y="1284"/>
      <point x="404" y="1363" type="curve" smooth="yes"/>
      <point x="404" y="1460"/>
      <point x="418" y="1500"/>
      <point x="491" y="1500" type="curve" smooth="yes"/>
      <point x="547" y="1500"/>
      <point x="577" y="1460"/>
      <point x="577" y="1378" type="curve" smooth="yes"/>
      <point x="577" y="1295"/>
      <point x="504" y="923"/>
      <point x="504" y="923" type="curve"/>
    </contour>
  </outline>
</glyph>
<glyph name="numbersign" format="1">
  <advance width="1418"/>
  <unicode hex="0023"/>
  <outline>
    <contour>
      <point x="1275" y="406" type="line" smooth="no"/>
      <point x="996" y="406" type="line" smooth="no"/>
      <point x="926" y="0" type="line" smooth="no"/>
      <point x="750" y="0" type="line" smooth="no"/>
      <point x="820" y="406" type="line" smooth="no"/>
      <point x="492" y="406" type="line" smooth="no"/>
      <point x="420" y="0" type="line" smooth="no"/>
      <point x="243" y="0" type="line" smooth="no"/>
      <point x="312" y="406" type="line" smooth="no"/>
      <point x="37" y="406" type="line" smooth="no"/>
      <point x="64" y="561" type="line" smooth="no"/>
      <point x="338" y="561" type="line" smooth="no"/>
      <point x="405" y="963" type="line" smooth="no"/>
      <point x="135" y="963" type="line" smooth="no"/>
      <point x="162" y="1131" type="line" smooth="no"/>
      <point x="434" y="1131" type="line" smooth="no"/>
      <point x="498" y="1490" type="line" smooth="no"/>
      <point x="680" y="1490" type="line" smooth="no"/>
      <point x="617" y="1131" type="line" smooth="no"/>
      <point x="939" y="1131" type="line" smooth="no"/>
      <point x="1001" y="1490" type="line" smooth="no"/>
      <point x="1177" y="1490" type="line" smooth="no"/>
      <point x="1116" y="1131" type="line" smooth="no"/>
      <point x="1389" y="1131" type="line" smooth="no"/>
      <point x="1366" y="963" type="line" smooth="no"/>
      <point x="1088" y="963" type="line" smooth="no"/>
      <point x="1021" y="561" type="line" smooth="no"/>
      <point x="1298" y="561" type="line" smooth="no"/>
    </contour>
    <contour>
      <point x="844" y="561" type="line" smooth="no"/>
      <point x="912" y="963" type="line" smooth="no"/>
      <point x="588" y="963" type="line" smooth="no"/>
      <point x="519" y="561" type="line" smooth="no"/>
    </contour>
  </outline>
</glyph>
<glyph name="percent" format="1">
  <advance width="2216"/>
  <unicode hex="0025"/>
  <outline>
    <contour>
      <point x="2099" y="480" type="curve" smooth="yes"/>
      <point x="2099" y="234"/>
      <point x="2008" y="166"/>
      <point x="1748" y="166" type="curve" smooth="yes"/>
      <point x="1405" y="166"/>
      <point x="1401" y="265"/>
      <point x="1401" y="706" type="curve" smooth="yes"/>
      <point x="1401" y="958"/>
      <point x="1493" y="1020"/>
      <point x="1748" y="1020" type="curve" smooth="yes"/>
      <point x="2091" y="1020"/>
      <point x="2099" y="918"/>
    </contour>
    <contour>
      <point x="1381" y="1573" type="line" smooth="no"/>
      <point x="1254" y="1048"/>
      <point x="1128" y="526"/>
      <point x="999" y="1" type="curve" smooth="no"/>
      <point x="831" y="1" type="line" smooth="no"/>
      <point x="958" y="525"/>
      <point x="1084" y="1048"/>
      <point x="1210" y="1573" type="curve" smooth="no"/>
    </contour>
    <contour>
      <point x="1944" y="628" type="line" smooth="yes"/>
      <point x="1944" y="885"/>
      <point x="1948" y="889"/>
      <point x="1748" y="889" type="curve" smooth="yes"/>
      <point x="1565" y="889"/>
      <point x="1549" y="888"/>
      <point x="1549" y="661" type="curve" smooth="yes"/>
      <point x="1549" y="319"/>
      <point x="1529" y="298"/>
      <point x="1731" y="298" type="curve" smooth="yes"/>
      <point x="1930" y="298"/>
      <point x="1944" y="313"/>
      <point x="1944" y="512" type="curve" smooth="yes"/>
    </contour>
    <contour>
      <point x="816" y="898" type="curve" smooth="yes"/>
      <point x="816" y="652"/>
      <point x="725" y="584"/>
      <point x="465" y="584" type="curve" smooth="yes"/>
      <point x="122" y="584"/>
      <point x="118" y="683"/>
      <point x="118" y="1124" type="curve" smooth="yes"/>
      <point x="118" y="1376"/>
      <point x="210" y="1438"/>
      <point x="465" y="1438" type="curve" smooth="yes"/>
      <point x="808" y="1438"/>
      <point x="816" y="1336"/>
    </contour>
    <contour>
      <point x="661" y="1046" type="line" smooth="yes"/>
      <point x="661" y="1303"/>
      <point x="665" y="1307"/>
      <point x="465" y="1307" type="curve" smooth="yes"/>
      <point x="282" y="1307"/>
      <point x="266" y="1306"/>
      <point x="266" y="1079" type="curve" smooth="yes"/>
      <point x="266" y="737"/>
      <point x="246" y="716"/>
      <point x="448" y="716" type="curve" smooth="yes"/>
      <point x="647" y="716"/>
      <point x="661" y="731"/>
      <point x="661" y="930" type="curve" smooth="yes"/>
    </contour>
  </outline>
</glyph>
<glyph name="quotesingle" format="1">
  <advance width="434"/>
  <unicode hex="0027"/>
  <outline>
    <contour>
      <point x="200" y="929" type="line" smooth="no"/>
      <point x="200" y="929"/>
      <point x="125" y="1284"/>
      <point x="125" y="1363" type="curve" smooth="yes"/>
      <point x="125" y="1460"/>
      <point x="139" y="1500"/>
      <point x="212" y="1500" type="curve" smooth="yes"/>
      <point x="268" y="1500"/>
      <point x="298" y="1460"/>
      <point x="298" y="1378" type="curve" smooth="yes"/>
      <point x="298" y="1295"/>
      <point x="225" y="923"/>
      <point x="225" y="923" type="curve" smooth="no"/>
    </contour>
  </outline>
</glyph>
<glyph name="asterisk" format="1">
  <advance width="1014"/>
  <unicode hex="002a"/>
  <outline>
    <contour>
      <point x="698" y="574" type="curve" smooth="yes"/>
      <point x="608" y="574"/>
      <point x="558" y="813"/>
      <point x="517" y="988" type="curve" smooth="no"/>
      <point x="442" y="713"/>
      <point x="425" y="574"/>
      <point x="334" y="574" type="curve" smooth="yes"/>
      <point x="298" y="574"/>
      <point x="255" y="612"/>
      <point x="255" y="648" type="curve" smooth="yes"/>
      <point x="255" y="734"/>
      <point x="362" y="843"/>
      <point x="501" y="997" type="curve" smooth="no"/>
      <point x="374" y="959"/>
      <point x="243" y="915"/>
      <point x="168" y="915" type="curve" smooth="yes"/>
      <point x="101" y="915"/>
      <point x="67" y="945"/>
      <point x="67" y="1006" type="curve" smooth="yes"/>
      <point x="67" y="1066"/>
      <point x="100" y="1096"/>
      <point x="166" y="1096" type="curve" smooth="yes"/>
      <point x="245" y="1096"/>
      <point x="426" y="1032"/>
      <point x="501" y="1012" type="curve" smooth="no"/>
      <point x="330" y="1197"/>
      <point x="245" y="1307"/>
      <point x="245" y="1344" type="curve" smooth="yes"/>
      <point x="245" y="1397"/>
      <point x="278" y="1436"/>
      <point x="332" y="1436" type="curve" smooth="yes"/>
      <point x="426" y="1436"/>
      <point x="474" y="1213"/>
      <point x="517" y="1022" type="curve" smooth="no"/>
      <point x="523" y="1045"/>
      <point x="530" y="1075"/>
      <point x="538" y="1114" type="curve" smooth="yes"/>
      <point x="542" y="1131"/>
      <point x="588" y="1436"/>
      <point x="696" y="1436" type="curve" smooth="yes"/>
      <point x="736" y="1436"/>
      <point x="776" y="1401"/>
      <point x="776" y="1353" type="curve" smooth="yes"/>
      <point x="776" y="1298"/>
      <point x="740" y="1231"/>
      <point x="534" y="1012" type="curve" smooth="no"/>
      <point x="717" y="1067"/>
      <point x="786" y="1096"/>
      <point x="865" y="1096" type="curve" smooth="yes"/>
      <point x="931" y="1096"/>
      <point x="964" y="1066"/>
      <point x="964" y="1006" type="curve" smooth="yes"/>
      <point x="964" y="945"/>
      <point x="930" y="915"/>
      <point x="861" y="915" type="curve" smooth="yes"/>
      <point x="781" y="915"/>
      <point x="615" y="973"/>
      <point x="534" y="997" type="curve" smooth="no"/>
      <point x="702" y="812"/>
      <point x="790" y="701"/>
      <point x="790" y="664" type="curve" smooth="yes"/>
      <point x="790" y="611"/>
      <point x="752" y="574"/>
    </contour>
  </outline>
</glyph>
<glyph name="plus" format="1">
  <advance width="889"/>
  <unicode hex="002b"/>
  <outline>
    <contour>
      <point x="58" y="585" type="line" smooth="no"/>
      <point x="58" y="754" type="line" smooth="no"/>
      <point x="365" y="754" type="line" smooth="no"/>
      <point x="365" y="1117" type="line" smooth="no"/>
      <point x="531" y="1117" type="line" smooth="no"/>
      <point x="531" y="754" type="line" smooth="no"/>
      <point x="839" y="754" type="line" smooth="no"/>
      <point x="839" y="585" type="line" smooth="no"/>
      <point x="531" y="585" type="line" smooth="no"/>
      <point x="531" y="223" type="line" smooth="no"/>
      <point x="365" y="223" type="line" smooth="no"/>
      <point x="365" y="585" type="line" smooth="no"/>
    </contour>
  </outline>
</glyph>
<glyph name="comma" format="1">
  <advance width="515"/>
  <unicode hex="002c"/>
  <outline>
    <contour>
      <point x="95" y="-159" type="line" smooth="no"/>
      <point x="183" y="-159"/>
      <point x="267" y="-89"/>
      <point x="267" y="0" type="curve" smooth="no"/>
      <point x="182" y="0"/>
      <point x="123" y="70"/>
      <point x="123" y="154" type="curve" smooth="yes"/>
      <point x="123" y="240"/>
      <point x="177" y="309"/>
      <point x="270" y="309" type="curve" smooth="yes"/>
      <point x="358" y="309"/>
      <point x="411" y="225"/>
      <point x="411" y="130" type="curve" smooth="yes"/>
      <point x="411" y="-39"/>
      <point x="295" y="-231"/>
      <point x="155" y="-231" type="curve" smooth="yes"/>
      <point x="126" y="-231"/>
      <point x="106" y="-230"/>
      <point x="95" y="-227" type="curve" smooth="no"/>
    </contour>
  </outline>
</glyph>
<glyph name="hyphen" format="1">
  <advance width="847"/>
  <unicode hex="002d"/>
  <outline>
    <contour>
      <point x="132" y="538" type="line" smooth="no"/>
      <point x="132" y="677" type="line" smooth="no"/>
      <point x="719" y="677" type="line" smooth="no"/>
      <point x="719" y="538" type="line" smooth="no"/>
    </contour>
  </outline>
</glyph>
<glyph name="period" format="1">
  <advance width="500"/>
  <unicode hex="002e"/>
  <outline>
    <contour>
      <point x="392" y="117" type="curve" smooth="yes"/>
      <point x="392" y="17"/>
      <point x="324" y="-31"/>
      <point x="254" y="-31" type="curve" smooth="yes"/>
      <point x="183" y="-31"/>
      <point x="111" y="20"/>
      <point x="111" y="117" type="curve" smooth="yes"/>
      <point x="111" y="216"/>
      <point x="179" y="264"/>
      <point x="248" y="264" type="curve" smooth="yes"/>
      <point x="319" y="264"/>
      <point x="392" y="213"/>
    </contour>
  </outline>
</glyph>
<glyph name="slash" format="1">
  <advance width="629"/>
  <unicode hex="002f"/>
  <outline>
    <contour>
      <point x="581" y="1516" type="line" smooth="no"/>
      <point x="215" y="-26" type="line" smooth="no"/>
      <point x="36" y="-26" type="line" smooth="no"/>
      <point x="403" y="1516" type="line" smooth="no"/>
    </contour>
  </outline>
</glyph>
<glyph name="zero" format="1">
  <advance width="1260"/>
  <unicode hex="0030"/>
  <outline>
    <contour>
      <point x="632" y="-16" type="curve" smooth="yes"/>
      <point x="137" y="-16"/>
      <point x="130" y="225"/>
      <point x="130" y="776" type="curve" smooth="yes"/>
      <point x="130" y="1289"/>
      <point x="172" y="1506"/>
      <point x="632" y="1506" type="curve" smooth="yes"/>
      <point x="1073" y="1506"/>
      <point x="1134" y="1304"/>
      <point x="1134" y="829" type="curve" smooth="yes"/>
      <point x="1134" y="241"/>
      <point x="1142" y="-16"/>
    </contour>
    <contour>
      <point x="632" y="1357" type="curve" smooth="yes"/>
      <point x="434" y="1357"/>
      <point x="334" y="1305"/>
      <point x="327" y="1179" type="curve" smooth="yes"/>
      <point x="318" y="1037"/>
      <point x="319" y="890"/>
      <point x="315" y="740" type="curve" smooth="no"/>
      <point x="315" y="590"/>
      <point x="317" y="442"/>
      <point x="326" y="301" type="curve" smooth="yes"/>
      <point x="333" y="187"/>
      <point x="425" y="138"/>
      <point x="632" y="138" type="curve" smooth="yes"/>
      <point x="839" y="138"/>
      <point x="931" y="187"/>
      <point x="938" y="301" type="curve" smooth="yes"/>
      <point x="947" y="442"/>
      <point x="949" y="590"/>
      <point x="949" y="740" type="curve" smooth="no"/>
      <point x="944" y="890"/>
      <point x="945" y="1037"/>
      <point x="937" y="1179" type="curve" smooth="yes"/>
      <point x="929" y="1305"/>
      <point x="829" y="1357"/>
    </contour>
  </outline>
</glyph>
<glyph name="one" format="1">
  <advance width="584"/>
  <unicode hex="0031"/>
  <outline>
    <contour>
      <point x="417" y="0" type="line" smooth="no"/>
      <point x="230" y="0" type="line" smooth="no"/>
      <point x="230" y="1244" type="line" smooth="no"/>
      <point x="45" y="1244" type="line" smooth="no"/>
      <point x="45" y="1336" type="line" smooth="no"/>
      <point x="147" y="1340"/>
      <point x="223" y="1386"/>
      <point x="262" y="1482" type="curve" smooth="no"/>
      <point x="417" y="1482" type="line" smooth="no"/>
    </contour>
  </outline>
</glyph>
<glyph name="two" format="1">
  <advance width="1095"/>
  <unicode hex="0032"/>
  <outline>
    <contour>
      <point x="957" y="9" type="line"/>
      <point x="94" y="9" type="line"/>
      <point x="95" y="315"/>
      <point x="143" y="425"/>
      <point x="314" y="546" type="curve"/>
      <point x="645" y="772"/>
      <point x="789" y="763"/>
      <point x="789" y="1098" type="curve" smooth="yes"/>
      <point x="789" y="1287"/>
      <point x="783" y="1368"/>
      <point x="548" y="1368" type="curve" smooth="yes"/>
      <point x="343" y="1368"/>
      <point x="275" y="1339"/>
      <point x="257" y="1125" type="curve"/>
      <point x="109" y="1160" type="line"/>
      <point x="108" y="1169"/>
      <point x="108" y="1178"/>
      <point x="108" y="1187" type="curve" smooth="yes"/>
      <point x="108" y="1423"/>
      <point x="263" y="1507"/>
      <point x="533" y="1507" type="curve" smooth="yes"/>
      <point x="844" y="1507"/>
      <point x="975" y="1439"/>
      <point x="975" y="1098" type="curve" smooth="yes"/>
      <point x="975" y="818"/>
      <point x="881" y="705"/>
      <point x="675" y="594" type="curve"/>
      <point x="436" y="455"/>
      <point x="280" y="398"/>
      <point x="275" y="146" type="curve"/>
      <point x="957" y="146" type="line"/>
    </contour>
  </outline>
</glyph>
<glyph name="three" format="1">
  <advance width="1124"/>
  <unicode hex="0033"/>
  <outline>
    <contour>
      <point x="1002" y="420" type="curve"/>
      <point x="1002" y="63"/>
      <point x="823" y="-16"/>
      <point x="502" y="-16" type="curve" smooth="yes"/>
      <point x="234" y="-16"/>
      <point x="79" y="34"/>
      <point x="79" y="265" type="curve" smooth="yes"/>
      <point x="79" y="283"/>
      <point x="79" y="304"/>
      <point x="80" y="328" type="curve"/>
      <point x="240" y="351" type="line"/>
      <point x="243" y="316"/>
      <point x="245" y="280"/>
      <point x="249" y="245" type="curve" smooth="yes"/>
      <point x="260" y="149"/>
      <point x="339" y="122"/>
      <point x="526" y="122" type="curve" smooth="yes"/>
      <point x="821" y="122"/>
      <point x="820" y="164"/>
      <point x="820" y="424" type="curve" smooth="yes"/>
      <point x="820" y="700"/>
      <point x="730" y="698"/>
      <point x="435" y="698" type="curve"/>
      <point x="427" y="840" type="line"/>
      <point x="512" y="840"/>
      <point x="550" y="840"/>
      <point x="588" y="841" type="curve" smooth="yes"/>
      <point x="819" y="847"/>
      <point x="813" y="941"/>
      <point x="813" y="1172" type="curve" smooth="yes"/>
      <point x="813" y="1321"/>
      <point x="778" y="1368"/>
      <point x="534" y="1368" type="curve" smooth="yes"/>
      <point x="332" y="1368"/>
      <point x="267" y="1343"/>
      <point x="260" y="1253" type="curve" smooth="yes"/>
      <point x="251" y="1144" type="line"/>
      <point x="97" y="1174" type="line"/>
      <point x="97" y="1202" type="line" smooth="yes"/>
      <point x="97" y="1425"/>
      <point x="161" y="1501"/>
      <point x="546" y="1506" type="curve"/>
      <point x="856" y="1506"/>
      <point x="993" y="1394"/>
      <point x="993" y="1134" type="curve" smooth="yes"/>
      <point x="993" y="793"/>
      <point x="816" y="777"/>
      <point x="781" y="769" type="curve"/>
      <point x="825" y="761"/>
      <point x="999" y="728"/>
    </contour>
  </outline>
</glyph>
<glyph name="four" format="1">
  <advance width="1060"/>
  <unicode hex="0034"/>
  <outline>
    <contour>
      <point x="991" y="390" type="line" smooth="no"/>
      <point x="852" y="390" type="line" smooth="no"/>
      <point x="852" y="0" type="line" smooth="no"/>
      <point x="667" y="0" type="line" smooth="no"/>
      <point x="667" y="389" type="line" smooth="no"/>
      <point x="45" y="389" type="line" smooth="no"/>
      <point x="45" y="539" type="line" smooth="no"/>
      <point x="563" y="1482" type="line" smooth="no"/>
      <point x="852" y="1482" type="line" smooth="no"/>
      <point x="852" y="521" type="line" smooth="no"/>
      <point x="991" y="521" type="line" smooth="no"/>
    </contour>
    <contour>
      <point x="667" y="1379" type="line" smooth="no"/>
      <point x="637" y="1316"/>
      <point x="602" y="1250"/>
      <point x="570" y="1185" type="curve" smooth="yes"/>
      <point x="335" y="713" type="line" smooth="yes"/>
      <point x="303" y="648"/>
      <point x="268" y="582"/>
      <point x="238" y="521" type="curve" smooth="no"/>
      <point x="667" y="521" type="line" smooth="no"/>
    </contour>
  </outline>
</glyph>
<glyph name="five" format="1">
  <advance width="1197"/>
  <unicode hex="0035"/>
  <outline>
    <contour>
      <point x="1088" y="460" type="curve" smooth="yes"/>
      <point x="1088" y="63"/>
      <point x="965" y="-16"/>
      <point x="583" y="-16" type="curve" smooth="yes"/>
      <point x="324" y="-16"/>
      <point x="144" y="21"/>
      <point x="144" y="289" type="curve" smooth="yes"/>
      <point x="144" y="310"/>
      <point x="146" y="331"/>
      <point x="146" y="354" type="curve" smooth="no"/>
      <point x="297" y="375" type="line" smooth="no"/>
      <point x="315" y="167"/>
      <point x="333" y="133"/>
      <point x="584" y="133" type="curve" smooth="yes"/>
      <point x="877" y="133"/>
      <point x="911" y="231"/>
      <point x="911" y="381" type="curve" smooth="yes"/>
      <point x="911" y="425"/>
      <point x="908" y="474"/>
      <point x="908" y="526" type="curve" smooth="yes"/>
      <point x="908" y="758"/>
      <point x="902" y="800"/>
      <point x="608" y="800" type="curve" smooth="yes"/>
      <point x="459" y="800"/>
      <point x="359" y="794"/>
      <point x="333" y="649" type="curve" smooth="no"/>
      <point x="159" y="662" type="line" smooth="no"/>
      <point x="159" y="1484" type="line" smooth="no"/>
      <point x="1001" y="1484" type="line" smooth="no"/>
      <point x="1001" y="1330" type="line" smooth="no"/>
      <point x="356" y="1330" type="line" smooth="no"/>
      <point x="324" y="761" type="line" smooth="no"/>
      <point x="367" y="867"/>
      <point x="420" y="951"/>
      <point x="648" y="951" type="curve" smooth="yes"/>
      <point x="1025" y="951"/>
      <point x="1088" y="808"/>
    </contour>
  </outline>
</glyph>
<glyph name="six" format="1">
  <advance width="1245"/>
  <unicode hex="0036"/>
  <outline>
    <contour>
      <point x="1138" y="488" type="curve" smooth="no"/>
      <point x="1138" y="95"/>
      <point x="1049" y="-16"/>
      <point x="667" y="-16" type="curve" smooth="yes"/>
      <point x="177" y="-16"/>
      <point x="134" y="110"/>
      <point x="134" y="655" type="curve" smooth="yes"/>
      <point x="134" y="1257"/>
      <point x="117" y="1500"/>
      <point x="644" y="1500" type="curve" smooth="yes"/>
      <point x="882" y="1500"/>
      <point x="1060" y="1479"/>
      <point x="1060" y="1272" type="curve" smooth="yes"/>
      <point x="1060" y="1256"/>
      <point x="1057" y="1223"/>
      <point x="1052" y="1173" type="curve" smooth="no"/>
      <point x="998" y="1167"/>
      <point x="944" y="1160"/>
      <point x="892" y="1152" type="curve" smooth="no"/>
      <point x="892" y="1348"/>
      <point x="889" y="1364"/>
      <point x="654" y="1364" type="curve" smooth="no"/>
      <point x="416" y="1358"/>
      <point x="348" y="1322"/>
      <point x="337" y="1187" type="curve" smooth="no"/>
      <point x="331" y="1053"/>
      <point x="326" y="919"/>
      <point x="323" y="782" type="curve" smooth="no"/>
      <point x="378" y="882"/>
      <point x="466" y="948"/>
      <point x="657" y="948" type="curve" smooth="yes"/>
      <point x="1017" y="948"/>
      <point x="1135" y="880"/>
    </contour>
    <contour>
      <point x="956" y="333" type="curve" smooth="yes"/>
      <point x="956" y="488"/>
      <point x="959" y="566"/>
      <point x="954" y="643" type="curve" smooth="yes"/>
      <point x="947" y="763"/>
      <point x="879" y="792"/>
      <point x="642" y="794" type="curve" smooth="no"/>
      <point x="323" y="794"/>
      <point x="320" y="705"/>
      <point x="320" y="524" type="curve" smooth="yes"/>
      <point x="320" y="466"/>
      <point x="318" y="415"/>
      <point x="318" y="370" type="curve" smooth="yes"/>
      <point x="318" y="201"/>
      <point x="347" y="121"/>
      <point x="641" y="121" type="curve" smooth="yes"/>
      <point x="937" y="121"/>
      <point x="956" y="177"/>
    </contour>
  </outline>
</glyph>
<glyph name="nine" format="1">
  <advance width="1249"/>
  <unicode hex="0039"/>
  <outline>
    <contour>
      <point x="1118" y="841" type="curve" smooth="yes"/>
      <point x="1118" y="196"/>
      <point x="1134" y="-2"/>
      <point x="627" y="-2" type="curve" smooth="yes"/>
      <point x="397" y="-2"/>
      <point x="172" y="7"/>
      <point x="172" y="207" type="curve" smooth="yes"/>
      <point x="172" y="225"/>
      <point x="172" y="262"/>
      <point x="181" y="317" type="curve" smooth="no"/>
      <point x="235" y="323"/>
      <point x="288" y="330"/>
      <point x="340" y="338" type="curve" smooth="no"/>
      <point x="340" y="165"/>
      <point x="344" y="125"/>
      <point x="617" y="125" type="curve" smooth="no"/>
      <point x="857" y="131"/>
      <point x="901" y="159"/>
      <point x="916" y="302" type="curve" smooth="no"/>
      <point x="922" y="440"/>
      <point x="927" y="579"/>
      <point x="930" y="719" type="curve" smooth="no"/>
      <point x="868" y="605"/>
      <point x="763" y="553"/>
      <point x="605" y="553" type="curve" smooth="yes"/>
      <point x="244" y="553"/>
      <point x="125" y="623"/>
      <point x="125" y="1002" type="curve" smooth="yes"/>
      <point x="125" y="1410"/>
      <point x="228" y="1506"/>
      <point x="595" y="1506" type="curve" smooth="yes"/>
      <point x="1075" y="1506"/>
      <point x="1118" y="1378"/>
    </contour>
    <contour>
      <point x="933" y="1080" type="curve" smooth="yes"/>
      <point x="933" y="1296"/>
      <point x="932" y="1369"/>
      <point x="620" y="1369" type="curve" smooth="yes"/>
      <point x="357" y="1369"/>
      <point x="315" y="1326"/>
      <point x="309" y="1206" type="curve" smooth="no"/>
      <point x="307" y="1131"/>
      <point x="305" y="1055"/>
      <point x="305" y="979" type="curve" smooth="yes"/>
      <point x="305" y="758"/>
      <point x="311" y="710"/>
      <point x="621" y="706" type="curve" smooth="no"/>
      <point x="844" y="706"/>
      <point x="924" y="748"/>
      <point x="931" y="870" type="curve" smooth="no"/>
      <point x="933" y="939"/>
      <point x="933" y="1009"/>
    </contour>
  </outline>
</glyph>
<glyph name="less" format="1">
  <advance width="874"/>
  <unicode hex="003c"/>
  <outline>
    <contour>
      <point x="761" y="234" type="line" smooth="no"/>
      <point x="65" y="667" type="line" smooth="no"/>
      <point x="65" y="832" type="line" smooth="no"/>
      <point x="761" y="1281" type="line" smooth="no"/>
      <point x="761" y="1045" type="line" smooth="no"/>
      <point x="242" y="758" type="line" smooth="no"/>
      <point x="761" y="462" type="line" smooth="no"/>
    </contour>
  </outline>
</glyph>
<glyph name="equal" format="1">
  <advance width="1138"/>
  <unicode hex="003D"/>
  <outline>
    <contour>
      <point x="988" y="692" type="line"/>
      <point x="153" y="692" type="line"/>
      <point x="153" y="881" type="line"/>
      <point x="988" y="881" type="line"/>
    </contour>
    <contour>
      <point x="988" y="314" type="line"/>
      <point x="153" y="314" type="line"/>
      <point x="153" y="503" type="line"/>
      <point x="988" y="503" type="line"/>
    </contour>
  </outline>
</glyph>
<glyph name="greater" format="1">
  <advance width="878"/>
  <unicode hex="003E"/>
  <outline>
    <contour>
      <point x="819" y="667" type="line"/>
      <point x="121" y="234" type="line"/>
      <point x="121" y="461" type="line"/>
      <point x="641" y="757" type="line"/>
      <point x="121" y="1045" type="line"/>
      <point x="121" y="1281" type="line"/>
      <point x="819" y="832" type="line"/>
    </contour>
  </outline>
</glyph>
<glyph name="question" format="1">
  <advance width="764"/>
  <unicode hex="003f"/>
  <outline>
    <contour>
      <point x="691" y="1161" type="curve" smooth="no"/>
      <point x="690" y="1030"/>
      <point x="635" y="918"/>
      <point x="521" y="803" type="curve" smooth="yes"/>
      <point x="416" y="697"/>
      <point x="355" y="593"/>
      <point x="347" y="483" type="curve" smooth="no"/>
      <point x="244" y="483" type="line" smooth="no"/>
      <point x="244" y="679"/>
      <point x="300" y="778"/>
      <point x="411" y="926" type="curve" smooth="yes"/>
      <point x="469" y="1003"/>
      <point x="494" y="1054"/>
      <point x="494" y="1149" type="curve" smooth="yes"/>
      <point x="494" y="1259"/>
      <point x="433" y="1333"/>
      <point x="314" y="1333" type="curve" smooth="yes"/>
      <point x="267" y="1333"/>
      <point x="200" y="1321"/>
      <point x="87" y="1293" type="curve" smooth="no"/>
      <point x="66" y="1457" type="line" smooth="no"/>
      <point x="160" y="1500"/>
      <point x="242" y="1522"/>
      <point x="321" y="1522" type="curve" smooth="yes"/>
      <point x="561" y="1522"/>
      <point x="691" y="1395"/>
    </contour>
    <contour>
      <point x="427" y="117" type="curve" smooth="yes"/>
      <point x="427" y="17"/>
      <point x="359" y="-31"/>
      <point x="289" y="-31" type="curve" smooth="yes"/>
      <point x="218" y="-31"/>
      <point x="146" y="20"/>
      <point x="146" y="117" type="curve" smooth="yes"/>
      <point x="146" y="216"/>
      <point x="214" y="264"/>
      <point x="283" y="264" type="curve" smooth="yes"/>
      <point x="354" y="264"/>
      <point x="427" y="213"/>
    </contour>
  </outline>
</glyph>
<glyph name="at" format="1">
  <advance width="1968"/>
  <unicode hex="0040"/>
  <outline>
    <contour>
      <point x="614" y="1014" type="curve" smooth="yes"/>
      <point x="614" y="1239"/>
      <point x="784" y="1266"/>
      <point x="1048" y="1266" type="curve" smooth="yes"/>
      <point x="1307" y="1266"/>
      <point x="1436" y="1159"/>
      <point x="1436" y="944" type="curve" smooth="yes"/>
      <point x="1436" y="215" type="line" smooth="no"/>
      <point x="1525" y="215"/>
      <point x="1581" y="218"/>
      <point x="1615" y="241" type="curve" smooth="no"/>
      <point x="1672" y="285"/>
      <point x="1675" y="313"/>
      <point x="1675" y="670" type="curve" smooth="yes"/>
      <point x="1675" y="1250"/>
      <point x="1588" y="1472"/>
      <point x="1019" y="1472" type="curve" smooth="yes"/>
      <point x="466" y="1472"/>
      <point x="297" y="1230"/>
      <point x="297" y="659" type="curve" smooth="yes"/>
      <point x="297" y="74"/>
      <point x="427" y="-175"/>
      <point x="942" y="-184" type="curve" smooth="no"/>
      <point x="1103" y="-184"/>
      <point x="1313" y="-148"/>
      <point x="1571" y="-77" type="curve" smooth="no"/>
      <point x="1619" y="-224" type="line" smooth="no"/>
      <point x="1436" y="-304"/>
      <point x="1234" y="-344"/>
      <point x="1014" y="-344" type="curve" smooth="yes"/>
      <point x="343" y="-344"/>
      <point x="107" y="-90"/>
      <point x="107" y="627" type="curve" smooth="yes"/>
      <point x="107" y="1322"/>
      <point x="349" y="1635"/>
      <point x="1000" y="1635" type="curve" smooth="yes"/>
      <point x="1697" y="1635"/>
      <point x="1863" y="1374"/>
      <point x="1863" y="662" type="curve" smooth="yes"/>
      <point x="1863" y="254"/>
      <point x="1834" y="87"/>
      <point x="1476" y="87" type="curve" smooth="yes"/>
      <point x="1375" y="87"/>
      <point x="1319" y="129"/>
      <point x="1310" y="212" type="curve" smooth="no"/>
      <point x="1287" y="111"/>
      <point x="1148" y="61"/>
      <point x="893" y="61" type="curve" smooth="yes"/>
      <point x="632" y="61"/>
      <point x="551" y="140"/>
      <point x="551" y="410" type="curve" smooth="yes"/>
      <point x="551" y="655"/>
      <point x="626" y="772"/>
      <point x="858" y="772" type="curve" smooth="yes"/>
      <point x="961" y="772"/>
      <point x="1088" y="759"/>
      <point x="1239" y="732" type="curve" smooth="no"/>
      <point x="1239" y="959" type="line" smooth="yes"/>
      <point x="1239" y="1091"/>
      <point x="1199" y="1105"/>
      <point x="1100" y="1105" type="curve" smooth="yes"/>
      <point x="891" y="1105" type="line" smooth="yes"/>
      <point x="831" y="1105"/>
      <point x="785" y="1086"/>
      <point x="785" y="992" type="curve" smooth="yes"/>
      <point x="785" y="960"/>
      <point x="786" y="930"/>
      <point x="789" y="903" type="curve" smooth="no"/>
      <point x="626" y="903" type="line" smooth="no"/>
      <point x="618" y="943"/>
      <point x="614" y="980"/>
    </contour>
    <contour>
      <point x="985" y="200" type="curve" smooth="yes"/>
      <point x="1212" y="200"/>
      <point x="1249" y="254"/>
      <point x="1249" y="376" type="curve" smooth="yes"/>
      <point x="1249" y="442"/>
      <point x="1239" y="543"/>
      <point x="1239" y="624" type="curve" smooth="no"/>
      <point x="1033" y="624" type="line" smooth="yes"/>
      <point x="974" y="624"/>
      <point x="926" y="625"/>
      <point x="888" y="625" type="curve" smooth="yes"/>
      <point x="735" y="625"/>
      <point x="732" y="601"/>
      <point x="732" y="366" type="curve" smooth="yes"/>
      <point x="732" y="238"/>
      <point x="754" y="200"/>
    </contour>
  </outline>
</glyph>
<glyph name="C" format="1">
  <advance width="1323"/>
  <unicode hex="0043"/>
  <outline>
    <contour>
      <point x="1042" y="462" type="curve" smooth="no"/>
      <point x="1216" y="436" type="line" smooth="no"/>
      <point x="1195" y="65"/>
      <point x="1102" y="-24"/>
      <point x="738" y="-24" type="curve" smooth="yes"/>
      <point x="145" y="-24"/>
      <point x="132" y="158"/>
      <point x="132" y="748" type="curve" smooth="yes"/>
      <point x="132" y="1397"/>
      <point x="153" y="1513"/>
      <point x="720" y="1513" type="curve" smooth="yes"/>
      <point x="1064" y="1513"/>
      <point x="1188" y="1444"/>
      <point x="1215" y="1078" type="curve" smooth="no"/>
      <point x="1040" y="1044" type="line" smooth="no"/>
      <point x="1009" y="1355"/>
      <point x="985" y="1360"/>
      <point x="708" y="1360" type="curve" smooth="yes"/>
      <point x="456" y="1360"/>
      <point x="353" y="1347"/>
      <point x="344" y="1203" type="curve" smooth="no"/>
      <point x="338" y="1027"/>
      <point x="335" y="847"/>
      <point x="335" y="664" type="curve" smooth="yes"/>
      <point x="335" y="536"/>
      <point x="338" y="411"/>
      <point x="344" y="289" type="curve" smooth="no"/>
      <point x="353" y="184"/>
      <point x="410" y="130"/>
      <point x="709" y="130" type="curve" smooth="yes"/>
      <point x="1052" y="130"/>
      <point x="1021" y="208"/>
    </contour>
  </outline>
</glyph>
<glyph name="D" format="1">
  <advance width="1405"/>
  <unicode hex="0044"/>
  <outline>
    <contour>
      <point x="1273" y="876" type="curve" smooth="yes"/>
      <point x="1273" y="53"/>
      <point x="1228" y="0"/>
      <point x="528" y="0" type="curve" smooth="yes"/>
      <point x="166" y="0" type="line" smooth="no"/>
      <point x="166" y="1490" type="line" smooth="no"/>
      <point x="682" y="1490" type="line" smooth="yes"/>
      <point x="1168" y="1490"/>
      <point x="1273" y="1371"/>
    </contour>
    <contour>
      <point x="1072" y="873" type="line" smooth="yes"/>
      <point x="1072" y="1259"/>
      <point x="1072" y="1336"/>
      <point x="579" y="1336" type="curve" smooth="yes"/>
      <point x="369" y="1336" type="line" smooth="no"/>
      <point x="369" y="153" type="line" smooth="no"/>
      <point x="609" y="153" type="line" smooth="yes"/>
      <point x="1003" y="153"/>
      <point x="1072" y="168"/>
      <point x="1072" y="620" type="curve" smooth="yes"/>
    </contour>
  </outline>
</glyph>
<glyph name="F" format="1">
  <advance width="1044"/>
  <unicode hex="0046"/>
  <outline>
    <contour>
      <point x="989" y="1336" type="line"/>
      <point x="374" y="1336" type="line"/>
      <point x="374" y="850" type="line"/>
      <point x="898" y="850" type="line"/>
      <point x="898" y="688" type="line"/>
      <point x="374" y="688" type="line"/>
      <point x="374" y="0" type="line"/>
      <point x="171" y="0" type="line"/>
      <point x="171" y="1490" type="line"/>
      <point x="969" y="1490" type="line"/>
    </contour>
  </outline>
</glyph>
<glyph name="H" format="1">
  <advance width="1404"/>
  <unicode hex="0048"/>
  <outline>
    <contour>
      <point x="1238" y="0" type="line" smooth="no"/>
      <point x="1035" y="0" type="line" smooth="no"/>
      <point x="1035" y="684" type="line" smooth="no"/>
      <point x="369" y="684" type="line" smooth="no"/>
      <point x="369" y="0" type="line" smooth="no"/>
      <point x="166" y="0" type="line" smooth="no"/>
      <point x="166" y="1490" type="line" smooth="no"/>
      <point x="369" y="1490" type="line" smooth="no"/>
      <point x="369" y="842" type="line" smooth="no"/>
      <point x="1035" y="842" type="line" smooth="no"/>
      <point x="1035" y="1490" type="line" smooth="no"/>
      <point x="1238" y="1490" type="line" smooth="no"/>
    </contour>
  </outline>
</glyph>
<glyph name="I" format="1">
  <advance width="547"/>
  <unicode hex="0049"/>
  <outline>
    <contour>
      <point x="375" y="0" type="line" smooth="no"/>
      <point x="172" y="0" type="line" smooth="no"/>
      <point x="172" y="1490" type="line" smooth="no"/>
      <point x="375" y="1490" type="line" smooth="no"/>
    </contour>
  </outline>
</glyph>
<glyph name="J" format="1">
  <advance width="726"/>
  <unicode hex="004a"/>
  <outline>
    <contour>
      <point x="560" y="1490" type="line" smooth="no"/>
      <point x="560" y="432" type="line" smooth="yes"/>
      <point x="560" y="153"/>
      <point x="548" y="-24"/>
      <point x="309" y="-24" type="curve" smooth="yes"/>
      <point x="224" y="-24"/>
      <point x="146" y="-5"/>
      <point x="71" y="29" type="curve" smooth="no"/>
      <point x="92" y="183" type="line" smooth="no"/>
      <point x="158" y="158"/>
      <point x="209" y="148"/>
      <point x="247" y="148" type="curve" smooth="yes"/>
      <point x="342" y="148"/>
      <point x="357" y="219"/>
      <point x="357" y="307" type="curve" smooth="yes"/>
      <point x="357" y="1490" type="line" smooth="no"/>
    </contour>
  </outline>
</glyph>
<glyph name="K" format="1">
  <advance width="1229"/>
  <unicode hex="004b"/>
  <outline>
    <contour>
      <point x="1228" y="0" type="line" smooth="no"/>
      <point x="983" y="0" type="line" smooth="no"/>
      <point x="446" y="732" type="line" smooth="no"/>
      <point x="368" y="639" type="line" smooth="no"/>
      <point x="368" y="0" type="line" smooth="no"/>
      <point x="166" y="0" type="line" smooth="no"/>
      <point x="166" y="1490" type="line" smooth="no"/>
      <point x="368" y="1490" type="line" smooth="no"/>
      <point x="368" y="983" type="line" smooth="yes"/>
      <point x="368" y="926"/>
      <point x="367" y="856"/>
      <point x="367" y="802" type="curve" smooth="no"/>
      <point x="400" y="846"/>
      <point x="445" y="902"/>
      <point x="482" y="949" type="curve" smooth="yes"/>
      <point x="921" y="1490" type="line" smooth="no"/>
      <point x="1162" y="1490" type="line" smooth="no"/>
      <point x="604" y="829" type="line" smooth="no"/>
    </contour>
  </outline>
</glyph>
<glyph name="L" format="1">
  <advance width="999"/>
  <unicode hex="004c"/>
  <outline>
    <contour>
      <point x="923" y="0" type="line" smooth="no"/>
      <point x="166" y="0" type="line" smooth="no"/>
      <point x="166" y="1490" type="line" smooth="no"/>
      <point x="369" y="1490" type="line" smooth="no"/>
      <point x="369" y="153" type="line" smooth="no"/>
      <point x="943" y="153" type="line" smooth="no"/>
    </contour>
  </outline>
</glyph>
<glyph name="M" format="1">
  <advance width="1671"/>
  <unicode hex="004d"/>
  <outline>
    <contour>
      <point x="113" y="0" type="line" smooth="no"/>
      <point x="187" y="1499" type="line" smooth="no"/>
      <point x="407" y="1499" type="line" smooth="no"/>
      <point x="837" y="326" type="line" smooth="no"/>
      <point x="1259" y="1499" type="line" smooth="no"/>
      <point x="1479" y="1499" type="line" smooth="no"/>
      <point x="1558" y="0" type="line" smooth="no"/>
      <point x="1360" y="0" type="line" smooth="no"/>
      <point x="1308" y="1201" type="line" smooth="no"/>
      <point x="894" y="0" type="line" smooth="no"/>
      <point x="778" y="0" type="line" smooth="no"/>
      <point x="344" y="1192" type="line" smooth="no"/>
      <point x="300" y="0" type="line" smooth="no"/>
    </contour>
  </outline>
</glyph>
<glyph name="N" format="1">
  <advance width="1431"/>
  <unicode hex="004e"/>
  <outline>
    <contour>
      <point x="1265" y="0" type="line" smooth="no"/>
      <point x="1054" y="0" type="line" smooth="no"/>
      <point x="344" y="1177" type="line" smooth="no"/>
      <point x="344" y="0" type="line" smooth="no"/>
      <point x="166" y="0" type="line" smooth="no"/>
      <point x="166" y="1490" type="line" smooth="no"/>
      <point x="371" y="1490" type="line" smooth="no"/>
      <point x="1087" y="297" type="line" smooth="no"/>
      <point x="1087" y="1490" type="line" smooth="no"/>
      <point x="1265" y="1490" type="line" smooth="no"/>
    </contour>
  </outline>
</glyph>
<glyph name="Q" format="1">
  <advance width="1420"/>
  <unicode hex="0051"/>
  <outline>
    <contour>
      <point x="710" y="1360" type="curve" smooth="yes"/>
      <point x="376" y="1360"/>
      <point x="347" y="1313"/>
      <point x="339" y="1097" type="curve" smooth="no"/>
      <point x="337" y="974"/>
      <point x="336" y="850"/>
      <point x="336" y="725" type="curve" smooth="yes"/>
      <point x="336" y="470"/>
      <point x="334" y="197"/>
      <point x="442" y="159" type="curve" smooth="no"/>
      <point x="485" y="134"/>
      <point x="594" y="130"/>
      <point x="710" y="130" type="curve" smooth="yes"/>
      <point x="826" y="130"/>
      <point x="935" y="134"/>
      <point x="978" y="159" type="curve" smooth="no"/>
      <point x="1082" y="196"/>
      <point x="1084" y="451"/>
      <point x="1084" y="697" type="curve" smooth="yes"/>
      <point x="1084" y="832"/>
      <point x="1083" y="965"/>
      <point x="1081" y="1097" type="curve" smooth="no"/>
      <point x="1073" y="1313"/>
      <point x="1044" y="1360"/>
    </contour>
    <contour>
      <point x="710" y="-24" type="curve" smooth="yes"/>
      <point x="140" y="-24"/>
      <point x="132" y="139"/>
      <point x="132" y="812" type="curve" smooth="yes"/>
      <point x="132" y="1367"/>
      <point x="211" y="1514"/>
      <point x="710" y="1514" type="curve" smooth="yes"/>
      <point x="1183" y="1514"/>
      <point x="1288" y="1378"/>
      <point x="1288" y="876" type="curve" smooth="yes"/>
      <point x="1288" y="339"/>
      <point x="1293" y="104"/>
      <point x="1059" y="18" type="curve" smooth="no"/>
      <point x="1226" y="-243" type="line" smooth="no"/>
      <point x="1087" y="-358" type="line" smooth="no"/>
      <point x="864" y="-19" type="line" smooth="no"/>
      <point x="818" y="-23"/>
      <point x="767" y="-24"/>
    </contour>
  </outline>
</glyph>
<glyph name="R" format="1">
  <advance width="1325"/>
  <unicode hex="0052"/>
  <outline>
    <contour>
      <point x="1199" y="1080" type="curve" smooth="yes"/>
      <point x="1199" y="809"/>
      <point x="1084" y="709"/>
      <point x="926" y="683" type="curve" smooth="no"/>
      <point x="1054" y="657"/>
      <point x="1130" y="576"/>
      <point x="1154" y="439" type="curve" smooth="yes"/>
      <point x="1231" y="0" type="line" smooth="no"/>
      <point x="1014" y="0" type="line" smooth="no"/>
      <point x="979" y="214"/>
      <point x="973" y="516"/>
      <point x="854" y="592" type="curve" smooth="no"/>
      <point x="809" y="611"/>
      <point x="749" y="615"/>
      <point x="677" y="615" type="curve" smooth="yes"/>
      <point x="368" y="615" type="line" smooth="no"/>
      <point x="368" y="0" type="line" smooth="no"/>
      <point x="166" y="0" type="line" smooth="no"/>
      <point x="166" y="1490" type="line" smooth="no"/>
      <point x="621" y="1490" type="line" smooth="yes"/>
      <point x="1009" y="1490"/>
      <point x="1199" y="1459"/>
    </contour>
    <contour>
      <point x="999" y="1001" type="curve" smooth="yes"/>
      <point x="999" y="1140" type="line" smooth="yes"/>
      <point x="999" y="1293"/>
      <point x="985" y="1337"/>
      <point x="705" y="1337" type="curve" smooth="yes"/>
      <point x="368" y="1337" type="line" smooth="no"/>
      <point x="368" y="774" type="line" smooth="no"/>
      <point x="717" y="774" type="line" smooth="yes"/>
      <point x="970" y="774"/>
      <point x="999" y="831"/>
    </contour>
  </outline>
</glyph>
<glyph name="S" format="1">
  <advance width="1254"/>
  <unicode hex="0053"/>
  <outline>
    <contour>
      <point x="1144" y="437" type="curve" smooth="yes"/>
      <point x="1144" y="6"/>
      <point x="1000" y="-24"/>
      <point x="625" y="-24" type="curve" smooth="yes"/>
      <point x="157" y="-24"/>
      <point x="132" y="69"/>
      <point x="119" y="380" type="curve" smooth="no"/>
      <point x="304" y="410" type="line" smooth="no"/>
      <point x="329" y="190"/>
      <point x="296" y="140"/>
      <point x="629" y="140" type="curve" smooth="yes"/>
      <point x="920" y="140"/>
      <point x="945" y="185"/>
      <point x="943" y="404" type="curve" smooth="yes"/>
      <point x="942" y="571"/>
      <point x="932" y="634"/>
      <point x="871" y="646" type="curve" smooth="no"/>
      <point x="373" y="733" type="line" smooth="yes"/>
      <point x="199" y="763"/>
      <point x="142" y="853"/>
      <point x="138" y="1081" type="curve" smooth="no"/>
      <point x="138" y="1442"/>
      <point x="247" y="1513"/>
      <point x="619" y="1513" type="curve" smooth="yes"/>
      <point x="969" y="1513"/>
      <point x="1108" y="1469"/>
      <point x="1108" y="1170" type="curve" smooth="no"/>
      <point x="930" y="1129" type="line" smooth="no"/>
      <point x="914" y="1309"/>
      <point x="936" y="1344"/>
      <point x="651" y="1344" type="curve" smooth="yes"/>
      <point x="364" y="1344"/>
      <point x="332" y="1306"/>
      <point x="332" y="1199" type="curve" smooth="yes"/>
      <point x="332" y="1026" type="line" smooth="yes"/>
      <point x="332" y="974"/>
      <point x="349" y="929"/>
      <point x="414" y="918" type="curve" smooth="yes"/>
      <point x="772" y="857" type="line" smooth="yes"/>
      <point x="1026" y="814"/>
      <point x="1144" y="783"/>
    </contour>
  </outline>
</glyph>
<glyph name="T" format="1">
  <advance width="979"/>
  <unicode hex="0054"/>
  <outline>
    <contour>
      <point x="976" y="1336" type="line" smooth="no"/>
      <point x="587" y="1336" type="line" smooth="no"/>
      <point x="587" y="0" type="line" smooth="no"/>
      <point x="384" y="0" type="line" smooth="no"/>
      <point x="384" y="1336" type="line" smooth="no"/>
      <point x="3" y="1336" type="line" smooth="no"/>
      <point x="3" y="1490" type="line" smooth="no"/>
      <point x="976" y="1490" type="line" smooth="no"/>
    </contour>
  </outline>
</glyph>
<glyph name="V" format="1">
  <advance width="1227"/>
  <unicode hex="0056"/>
  <outline>
    <contour>
      <point x="1202" y="1490" type="line"/>
      <point x="712" y="0" type="line"/>
      <point x="502" y="0" type="line"/>
      <point x="25" y="1490" type="line"/>
      <point x="240" y="1490" type="line"/>
      <point x="611" y="259" type="line"/>
      <point x="982" y="1490" type="line"/>
    </contour>
  </outline>
</glyph>
<glyph name="W" format="1">
  <advance width="1739"/>
  <unicode hex="0057"/>
  <outline>
    <contour>
      <point x="1688" y="1490" type="line" smooth="no"/>
      <point x="1372" y="0" type="line" smooth="no"/>
      <point x="1155" y="0" type="line" smooth="no"/>
      <point x="871" y="1173" type="line" smooth="no"/>
      <point x="589" y="0" type="line" smooth="no"/>
      <point x="373" y="0" type="line" smooth="no"/>
      <point x="45" y="1490" type="line" smooth="no"/>
      <point x="259" y="1490" type="line" smooth="no"/>
      <point x="493" y="279" type="line" smooth="no"/>
      <point x="778" y="1490" type="line" smooth="no"/>
      <point x="979" y="1490" type="line" smooth="no"/>
      <point x="1272" y="279" type="line" smooth="no"/>
      <point x="1500" y="1490" type="line" smooth="no"/>
    </contour>
  </outline>
</glyph>
<glyph name="X" format="1">
  <advance width="1190"/>
  <unicode hex="0058"/>
  <outline>
    <contour>
      <point x="1140" y="0" type="line" smooth="no"/>
      <point x="918" y="0" type="line" smooth="no"/>
      <point x="594" y="590" type="line" smooth="no"/>
      <point x="271" y="0" type="line" smooth="no"/>
      <point x="50" y="0" type="line" smooth="no"/>
      <point x="479" y="766" type="line" smooth="no"/>
      <point x="71" y="1490" type="line" smooth="no"/>
      <point x="288" y="1490" type="line" smooth="no"/>
      <point x="594" y="934" type="line" smooth="no"/>
      <point x="902" y="1490" type="line" smooth="no"/>
      <point x="1119" y="1490" type="line" smooth="no"/>
      <point x="712" y="766" type="line" smooth="no"/>
    </contour>
  </outline>
</glyph>
<glyph name="Y" format="1">
  <advance width="1081"/>
  <unicode hex="0059"/>
  <outline>
    <contour>
      <point x="1086" y="1490" type="line" smooth="no"/>
      <point x="635" y="518" type="line" smooth="no"/>
      <point x="635" y="0" type="line" smooth="no"/>
      <point x="433" y="0" type="line" smooth="no"/>
      <point x="433" y="518" type="line" smooth="no"/>
      <point x="-5" y="1490" type="line" smooth="no"/>
      <point x="216" y="1490" type="line" smooth="no"/>
      <point x="541" y="727" type="line" smooth="no"/>
      <point x="872" y="1490" type="line" smooth="no"/>
    </contour>
  </outline>
</glyph>
<glyph name="Z" format="1">
  <advance width="1093"/>
  <unicode hex="005A"/>
  <outline>
    <contour>
      <point x="990" y="0" type="line"/>
      <point x="101" y="0" type="line"/>
      <point x="91" y="176" type="line"/>
      <point x="662" y="1128" type="line"/>
      <point x="790" y="1338" type="line"/>
      <point x="156" y="1338" type="line"/>
      <point x="139" y="1490" type="line"/>
      <point x="979" y="1490" type="line"/>
      <point x="990" y="1311" type="line"/>
      <point x="431" y="361" type="line"/>
      <point x="305" y="151" type="line"/>
      <point x="990" y="151" type="line"/>
    </contour>
  </outline>
</glyph>
<glyph name="bracketleft" format="1">
  <advance width="608"/>
  <unicode hex="005b"/>
  <outline>
    <contour>
      <point x="619" y="-257" type="line" smooth="no"/>
      <point x="173" y="-257" type="line" smooth="no"/>
      <point x="173" y="1653" type="line" smooth="no"/>
      <point x="619" y="1653" type="line" smooth="no"/>
      <point x="619" y="1502" type="line" smooth="no"/>
      <point x="364" y="1502" type="line" smooth="no"/>
      <point x="364" y="-105" type="line" smooth="no"/>
      <point x="619" y="-105" type="line" smooth="no"/>
    </contour>
  </outline>
</glyph>
<glyph name="backslash" format="1">
  <advance width="644"/>
  <unicode hex="005c"/>
  <outline>
    <contour>
      <point x="603" y="-26" type="line" smooth="no"/>
      <point x="404" y="-26" type="line" smooth="no"/>
      <point x="61" y="1516" type="line" smooth="no"/>
      <point x="260" y="1516" type="line" smooth="no"/>
    </contour>
  </outline>
</glyph>
<glyph name="bracketright" format="1">
  <advance width="613"/>
  <unicode hex="005d"/>
  <outline>
    <contour>
      <point x="442" y="-257" type="line" smooth="no"/>
      <point x="-3" y="-257" type="line" smooth="no"/>
      <point x="-3" y="-105" type="line" smooth="no"/>
      <point x="251" y="-105" type="line" smooth="no"/>
      <point x="251" y="1502" type="line" smooth="no"/>
      <point x="-3" y="1502" type="line" smooth="no"/>
      <point x="-3" y="1653" type="line" smooth="no"/>
      <point x="442" y="1653" type="line" smooth="no"/>
    </contour>
  </outline>
</glyph>
<glyph name="underscore" format="1">
  <advance width="1118"/>
  <unicode hex="005F"/>
  <outline>
    <contour>
      <point x="141" y="0" type="line"/>
      <point x="978" y="0" type="line"/>
      <point x="978" y="-127" type="line"/>
      <point x="141" y="-127" type="line"/>
    </contour>
  </outline>
</glyph>
<glyph name="grave" format="1">
  <advance width="679"/>
  <unicode hex="0060"/>
  <outline>
    <contour>
      <point x="278" y="1605" type="curve" smooth="no"/>
      <point x="317" y="1574"/>
      <point x="574" y="1308"/>
      <point x="574" y="1308" type="curve" smooth="no"/>
      <point x="557" y="1287" type="line" smooth="yes"/>
      <point x="557" y="1288"/>
      <point x="187" y="1425"/>
      <point x="162" y="1436" type="curve" smooth="yes"/>
      <point x="113" y="1457"/>
      <point x="91" y="1501"/>
      <point x="91" y="1540" type="curve" smooth="yes"/>
      <point x="91" y="1591"/>
      <point x="128" y="1640"/>
      <point x="194" y="1640" type="curve" smooth="yes"/>
      <point x="226" y="1640"/>
      <point x="255" y="1625"/>
    </contour>
  </outline>
</glyph>
<glyph name="b" format="1">
  <advance width="1181"/>
  <unicode hex="0062"/>
  <outline>
    <contour>
      <point x="1057" y="611" type="curve" smooth="yes"/>
      <point x="1057" y="167"/>
      <point x="1039" y="-15"/>
      <point x="672" y="-15" type="curve" smooth="yes"/>
      <point x="498" y="-15"/>
      <point x="390" y="38"/>
      <point x="353" y="138" type="curve" smooth="no"/>
      <point x="335" y="0" type="line" smooth="no"/>
      <point x="155" y="0" type="line" smooth="no"/>
      <point x="155" y="1519" type="line" smooth="no"/>
      <point x="352" y="1535" type="line" smooth="no"/>
      <point x="352" y="976" type="line" smooth="no"/>
      <point x="396" y="1078"/>
      <point x="487" y="1128"/>
      <point x="656" y="1128" type="curve" smooth="yes"/>
      <point x="1023" y="1128"/>
      <point x="1057" y="932"/>
    </contour>
    <contour>
      <point x="860" y="761" type="line" smooth="yes"/>
      <point x="860" y="950"/>
      <point x="857" y="990"/>
      <point x="609" y="990" type="curve" smooth="yes"/>
      <point x="475" y="990"/>
      <point x="404" y="972"/>
      <point x="370" y="927" type="curve" smooth="no"/>
      <point x="355" y="899"/>
      <point x="352" y="839"/>
      <point x="352" y="773" type="curve" smooth="yes"/>
      <point x="352" y="269" type="line" smooth="yes"/>
      <point x="352" y="158"/>
      <point x="422" y="122"/>
      <point x="610" y="122" type="curve" smooth="yes"/>
      <point x="707" y="122"/>
      <point x="770" y="131"/>
      <point x="804" y="147" type="curve" smooth="no"/>
      <point x="852" y="164"/>
      <point x="861" y="255"/>
      <point x="861" y="349" type="curve" smooth="yes"/>
    </contour>
  </outline>
</glyph>
<glyph name="c" format="1">
  <advance width="1093"/>
  <unicode hex="0063"/>
  <outline>
    <contour>
      <point x="985" y="781" type="curve" smooth="no"/>
      <point x="823" y="754" type="line" smooth="no"/>
      <point x="802" y="893" type="line" smooth="yes"/>
      <point x="791" y="963"/>
      <point x="793" y="989"/>
      <point x="577" y="989" type="curve" smooth="yes"/>
      <point x="486" y="989"/>
      <point x="427" y="984"/>
      <point x="399" y="974" type="curve" smooth="no"/>
      <point x="333" y="963"/>
      <point x="311" y="822"/>
      <point x="311" y="680" type="curve" smooth="yes"/>
      <point x="312" y="507" type="line" smooth="yes"/>
      <point x="314" y="145"/>
      <point x="283" y="123"/>
      <point x="559" y="123" type="curve" smooth="yes"/>
      <point x="849" y="123"/>
      <point x="802" y="196"/>
      <point x="821" y="365" type="curve" smooth="no"/>
      <point x="985" y="337" type="line" smooth="no"/>
      <point x="964" y="54"/>
      <point x="925" y="-15"/>
      <point x="568" y="-15" type="curve" smooth="yes"/>
      <point x="130" y="-15"/>
      <point x="124" y="136"/>
      <point x="124" y="619" type="curve" smooth="yes"/>
      <point x="124" y="1024"/>
      <point x="182" y="1128"/>
      <point x="567" y="1128" type="curve" smooth="yes"/>
      <point x="872" y="1128"/>
      <point x="971" y="1063"/>
    </contour>
  </outline>
</glyph>
<glyph name="d" format="1">
  <advance width="1180"/>
  <unicode hex="0064"/>
  <outline>
    <contour>
      <point x="1025" y="0" type="line" smooth="no"/>
      <point x="845" y="0" type="line" smooth="no"/>
      <point x="826" y="138" type="line" smooth="no"/>
      <point x="786" y="38"/>
      <point x="681" y="-15"/>
      <point x="507" y="-15" type="curve" smooth="yes"/>
      <point x="134" y="-15"/>
      <point x="124" y="198"/>
      <point x="124" y="566" type="curve" smooth="yes"/>
      <point x="124" y="968"/>
      <point x="167" y="1128"/>
      <point x="525" y="1128" type="curve" smooth="yes"/>
      <point x="698" y="1128"/>
      <point x="787" y="1083"/>
      <point x="828" y="984" type="curve" smooth="no"/>
      <point x="828" y="1519" type="line" smooth="no"/>
      <point x="1025" y="1535" type="line" smooth="no"/>
    </contour>
    <contour>
      <point x="828" y="255" type="curve" smooth="no"/>
      <point x="828" y="838" type="line" smooth="yes"/>
      <point x="828" y="954"/>
      <point x="770" y="990"/>
      <point x="571" y="990" type="curve" smooth="yes"/>
      <point x="486" y="990"/>
      <point x="442" y="986"/>
      <point x="399" y="973" type="curve" smooth="yes"/>
      <point x="333" y="952"/>
      <point x="321" y="840"/>
      <point x="321" y="706" type="curve" smooth="yes"/>
      <point x="321" y="542"/>
      <point x="324" y="385"/>
      <point x="327" y="233" type="curve" smooth="no"/>
      <point x="333" y="146"/>
      <point x="380" y="122"/>
      <point x="571" y="122" type="curve" smooth="yes"/>
      <point x="754" y="122"/>
      <point x="820" y="150"/>
    </contour>
  </outline>
</glyph>
<glyph name="e" format="1">
  <advance width="1127"/>
  <unicode hex="0065"/>
  <outline>
    <contour>
      <point x="1014" y="564" type="curve" smooth="no"/>
      <point x="965" y="559"/>
      <point x="914" y="553"/>
      <point x="865" y="550" type="curve" smooth="no"/>
      <point x="320" y="550" type="line" smooth="no"/>
      <point x="321" y="442"/>
      <point x="324" y="336"/>
      <point x="328" y="232" type="curve" smooth="no"/>
      <point x="335" y="142"/>
      <point x="390" y="122"/>
      <point x="590" y="122" type="curve" smooth="yes"/>
      <point x="862" y="122"/>
      <point x="816" y="206"/>
      <point x="834" y="334" type="curve" smooth="no"/>
      <point x="987" y="306" type="line" smooth="no"/>
      <point x="978" y="34"/>
      <point x="904" y="-15"/>
      <point x="607" y="-15" type="curve" smooth="yes"/>
      <point x="139" y="-15"/>
      <point x="124" y="147"/>
      <point x="124" y="534" type="curve" smooth="yes"/>
      <point x="124" y="1022"/>
      <point x="150" y="1128"/>
      <point x="578" y="1128" type="curve" smooth="yes"/>
      <point x="976" y="1128"/>
      <point x="1014" y="1030"/>
    </contour>
    <contour>
      <point x="321" y="655" type="curve" smooth="no"/>
      <point x="817" y="655" type="line" smooth="no"/>
      <point x="816" y="735"/>
      <point x="813" y="813"/>
      <point x="807" y="889" type="curve" smooth="yes"/>
      <point x="801" y="971"/>
      <point x="747" y="991"/>
      <point x="577" y="991" type="curve" smooth="yes"/>
      <point x="483" y="991"/>
      <point x="422" y="986"/>
      <point x="396" y="975" type="curve" smooth="no"/>
      <point x="315" y="952"/>
      <point x="324" y="776"/>
    </contour>
  </outline>
</glyph>
<glyph name="f" format="1">
  <advance width="653"/>
  <unicode hex="0066"/>
  <outline>
    <contour>
      <point x="595" y="1505" type="curve" smooth="no"/>
      <point x="595" y="1362" type="line" smooth="no"/>
      <point x="559" y="1364"/>
      <point x="524" y="1365"/>
      <point x="491" y="1365" type="curve" smooth="yes"/>
      <point x="400" y="1365"/>
      <point x="390" y="1372"/>
      <point x="390" y="1235" type="curve" smooth="yes"/>
      <point x="390" y="1200"/>
      <point x="391" y="1155"/>
      <point x="391" y="1097" type="curve" smooth="no"/>
      <point x="589" y="1097" type="line" smooth="no"/>
      <point x="589" y="984" type="line" smooth="no"/>
      <point x="391" y="984" type="line" smooth="no"/>
      <point x="391" y="0" type="line" smooth="no"/>
      <point x="194" y="0" type="line" smooth="no"/>
      <point x="194" y="984" type="line" smooth="no"/>
      <point x="65" y="984" type="line" smooth="no"/>
      <point x="65" y="1097" type="line" smooth="no"/>
      <point x="194" y="1097" type="line" smooth="no"/>
      <point x="194" y="1416"/>
      <point x="203" y="1522"/>
      <point x="425" y="1522" type="curve" smooth="yes"/>
      <point x="476" y="1522"/>
      <point x="532" y="1517"/>
    </contour>
  </outline>
</glyph>
<glyph name="h" format="1">
  <advance width="1181"/>
  <unicode hex="0068"/>
  <outline>
    <contour>
      <point x="1030" y="0" type="line"/>
      <point x="833" y="0" type="line"/>
      <point x="833" y="666" type="line" smooth="yes"/>
      <point x="833" y="733"/>
      <point x="836" y="787"/>
      <point x="836" y="830" type="curve" smooth="yes"/>
      <point x="836" y="952"/>
      <point x="808" y="990"/>
      <point x="584" y="990" type="curve" smooth="yes"/>
      <point x="484" y="990"/>
      <point x="373" y="969"/>
      <point x="367" y="896" type="curve" smooth="yes"/>
      <point x="359" y="793"/>
      <point x="353" y="684"/>
      <point x="353" y="572" type="curve" smooth="yes"/>
      <point x="353" y="0" type="line"/>
      <point x="155" y="0" type="line"/>
      <point x="155" y="1486" type="line"/>
      <point x="353" y="1502" type="line"/>
      <point x="353" y="1014" type="line"/>
      <point x="401" y="1090"/>
      <point x="502" y="1128"/>
      <point x="651" y="1128" type="curve"/>
      <point x="1005" y="1120"/>
      <point x="1031" y="990"/>
      <point x="1031" y="756" type="curve" smooth="yes"/>
      <point x="1031" y="717"/>
      <point x="1030" y="674"/>
      <point x="1030" y="629" type="curve" smooth="yes"/>
    </contour>
  </outline>
</glyph>
<glyph name="i" format="1">
  <advance width="523"/>
  <unicode hex="0069"/>
  <outline>
    <contour>
      <point x="360" y="0" type="line" smooth="no"/>
      <point x="163" y="0" type="line" smooth="no"/>
      <point x="163" y="1097" type="line" smooth="no"/>
      <point x="360" y="1097" type="line" smooth="no"/>
    </contour>
    <contour>
      <point x="360" y="1521" type="line" smooth="no"/>
      <point x="360" y="1348" type="line" smooth="no"/>
      <point x="163" y="1348" type="line" smooth="no"/>
      <point x="163" y="1521" type="line" smooth="no"/>
    </contour>
  </outline>
</glyph>
<glyph name="j" format="1">
  <advance width="478"/>
  <unicode hex="006a"/>
  <outline>
    <contour>
      <point x="345" y="1097" type="line" smooth="no"/>
      <point x="345" y="61" type="line" smooth="yes"/>
      <point x="345" y="-200"/>
      <point x="288" y="-302"/>
      <point x="90" y="-302" type="curve" smooth="yes"/>
      <point x="59" y="-302"/>
      <point x="23" y="-299"/>
      <point x="-16" y="-294" type="curve" smooth="no"/>
      <point x="-21" y="-172" type="line" smooth="no"/>
      <point x="60" y="-168"/>
      <point x="148" y="-188"/>
      <point x="148" y="-64" type="curve" smooth="yes"/>
      <point x="148" y="1097" type="line" smooth="no"/>
    </contour>
    <contour>
      <point x="346" y="1521" type="line" smooth="no"/>
      <point x="346" y="1348" type="line" smooth="no"/>
      <point x="147" y="1348" type="line" smooth="no"/>
      <point x="147" y="1521" type="line" smooth="no"/>
    </contour>
  </outline>
</glyph>
<glyph name="k" format="1">
  <advance width="1076"/>
  <unicode hex="006b"/>
  <outline>
    <contour>
      <point x="1044" y="0" type="line" smooth="no"/>
      <point x="827" y="0" type="line" smooth="no"/>
      <point x="445" y="572" type="line" smooth="no"/>
      <point x="353" y="469" type="line" smooth="no"/>
      <point x="353" y="0" type="line" smooth="no"/>
      <point x="155" y="0" type="line" smooth="no"/>
      <point x="155" y="1486" type="line" smooth="no"/>
      <point x="353" y="1502" type="line" smooth="no"/>
      <point x="353" y="782" type="line" smooth="yes"/>
      <point x="353" y="732"/>
      <point x="352" y="674"/>
      <point x="352" y="625" type="curve" smooth="no"/>
      <point x="408" y="685"/>
      <point x="466" y="750"/>
      <point x="523" y="812" type="curve" smooth="yes"/>
      <point x="784" y="1097" type="line" smooth="no"/>
      <point x="1008" y="1097" type="line" smooth="no"/>
      <point x="595" y="658" type="line" smooth="no"/>
    </contour>
  </outline>
</glyph>
<glyph name="l" format="1">
  <advance width="518"/>
  <unicode hex="006c"/>
  <outline>
    <contour>
      <point x="359" y="0" type="line" smooth="no"/>
      <point x="162" y="0" type="line" smooth="no"/>
      <point x="162" y="1486" type="line" smooth="no"/>
      <point x="359" y="1502" type="line" smooth="no"/>
    </contour>
  </outline>
</glyph>
<glyph name="m" format="1">
  <advance width="1759"/>
  <unicode hex="006d"/>
  <outline>
    <contour>
      <point x="1609" y="0" type="line" smooth="no"/>
      <point x="1412" y="0" type="line" smooth="no"/>
      <point x="1412" y="666" type="line" smooth="yes"/>
      <point x="1412" y="727"/>
      <point x="1412" y="779"/>
      <point x="1415" y="838" type="curve" smooth="no"/>
      <point x="1415" y="918"/>
      <point x="1402" y="990"/>
      <point x="1232" y="990" type="curve" smooth="yes"/>
      <point x="1008" y="990"/>
      <point x="980" y="926"/>
      <point x="980" y="784" type="curve" smooth="yes"/>
      <point x="980" y="736"/>
      <point x="983" y="680"/>
      <point x="983" y="614" type="curve" smooth="yes"/>
      <point x="983" y="0" type="line" smooth="no"/>
      <point x="786" y="0" type="line" smooth="no"/>
      <point x="786" y="702" type="line" smooth="yes"/>
      <point x="786" y="931"/>
      <point x="791" y="990"/>
      <point x="563" y="990" type="curve" smooth="yes"/>
      <point x="475" y="990"/>
      <point x="367" y="970"/>
      <point x="363" y="897" type="curve" smooth="no"/>
      <point x="354" y="805"/>
      <point x="350" y="707"/>
      <point x="350" y="605" type="curve" smooth="yes"/>
      <point x="350" y="0" type="line" smooth="no"/>
      <point x="153" y="0" type="line" smooth="no"/>
      <point x="153" y="1097" type="line" smooth="no"/>
      <point x="333" y="1097" type="line" smooth="no"/>
      <point x="352" y="977" type="line" smooth="no"/>
      <point x="408" y="1090"/>
      <point x="511" y="1126"/>
      <point x="657" y="1126" type="curve" smooth="yes"/>
      <point x="804" y="1126"/>
      <point x="893" y="1084"/>
      <point x="935" y="972" type="curve" smooth="no"/>
      <point x="988" y="1075"/>
      <point x="1090" y="1128"/>
      <point x="1251" y="1128" type="curve" smooth="yes"/>
      <point x="1553" y="1128"/>
      <point x="1609" y="1026"/>
      <point x="1609" y="673" type="curve" smooth="yes"/>
    </contour>
  </outline>
</glyph>
<glyph name="n" format="1">
  <advance width="1171"/>
  <unicode hex="006e"/>
  <outline>
    <contour>
      <point x="1021" y="0" type="line" smooth="no"/>
      <point x="824" y="0" type="line" smooth="no"/>
      <point x="824" y="664" type="line" smooth="yes"/>
      <point x="824" y="971"/>
      <point x="813" y="990"/>
      <point x="646" y="990" type="curve" smooth="yes"/>
      <point x="390" y="990"/>
      <point x="344" y="924"/>
      <point x="344" y="780" type="curve" smooth="yes"/>
      <point x="344" y="723"/>
      <point x="350" y="660"/>
      <point x="350" y="585" type="curve" smooth="yes"/>
      <point x="350" y="0" type="line" smooth="no"/>
      <point x="153" y="0" type="line" smooth="no"/>
      <point x="153" y="1097" type="line" smooth="no"/>
      <point x="333" y="1097" type="line" smooth="no"/>
      <point x="352" y="974" type="line" smooth="no"/>
      <point x="389" y="1091"/>
      <point x="533" y="1128"/>
      <point x="679" y="1128" type="curve" smooth="yes"/>
      <point x="987" y="1128"/>
      <point x="1021" y="974"/>
      <point x="1021" y="609" type="curve" smooth="yes"/>
    </contour>
  </outline>
</glyph>
<glyph name="p" format="1">
  <advance width="1177"/>
  <unicode hex="0070"/>
  <outline>
    <contour>
      <point x="1053" y="541" type="curve" smooth="yes"/>
      <point x="1053" y="145"/>
      <point x="1011" y="-15"/>
      <point x="652" y="-15" type="curve" smooth="yes"/>
      <point x="479" y="-15"/>
      <point x="375" y="26"/>
      <point x="350" y="103" type="curve" smooth="no"/>
      <point x="350" y="-372" type="line" smooth="no"/>
      <point x="153" y="-387" type="line" smooth="no"/>
      <point x="153" y="1097" type="line" smooth="no"/>
      <point x="332" y="1097" type="line" smooth="no"/>
      <point x="351" y="976" type="line" smooth="no"/>
      <point x="391" y="1076"/>
      <point x="496" y="1128"/>
      <point x="671" y="1128" type="curve" smooth="yes"/>
      <point x="1025" y="1128"/>
      <point x="1053" y="962"/>
    </contour>
    <contour>
      <point x="856" y="606" type="curve" smooth="yes"/>
      <point x="855" y="697"/>
      <point x="855" y="786"/>
      <point x="850" y="872" type="curve" smooth="yes"/>
      <point x="845" y="964"/>
      <point x="799" y="990"/>
      <point x="606" y="990" type="curve" smooth="yes"/>
      <point x="477" y="990"/>
      <point x="409" y="972"/>
      <point x="374" y="932" type="curve" smooth="no"/>
      <point x="351" y="898"/>
      <point x="346" y="802"/>
      <point x="346" y="693" type="curve" smooth="yes"/>
      <point x="346" y="615"/>
      <point x="349" y="531"/>
      <point x="349" y="460" type="curve" smooth="yes"/>
      <point x="349" y="395"/>
      <point x="344" y="340"/>
      <point x="344" y="294" type="curve" smooth="yes"/>
      <point x="344" y="181"/>
      <point x="388" y="122"/>
      <point x="606" y="122" type="curve" smooth="yes"/>
      <point x="707" y="122"/>
      <point x="769" y="130"/>
      <point x="803" y="146" type="curve" smooth="yes"/>
      <point x="850" y="168"/>
      <point x="858" y="290"/>
      <point x="858" y="415" type="curve" smooth="yes"/>
      <point x="858" y="484"/>
      <point x="856" y="553"/>
    </contour>
  </outline>
</glyph>
<glyph name="q" format="1">
  <advance width="1174"/>
  <unicode hex="0071"/>
  <outline>
    <contour>
      <point x="1024" y="-372" type="line" smooth="no"/>
      <point x="827" y="-387" type="line" smooth="no"/>
      <point x="827" y="103" type="line" smooth="no"/>
      <point x="798" y="25"/>
      <point x="697" y="-15"/>
      <point x="523" y="-15" type="curve" smooth="yes"/>
      <point x="132" y="-15"/>
      <point x="124" y="209"/>
      <point x="124" y="557" type="curve" smooth="yes"/>
      <point x="124" y="969"/>
      <point x="160" y="1128"/>
      <point x="507" y="1128" type="curve" smooth="yes"/>
      <point x="680" y="1128"/>
      <point x="789" y="1075"/>
      <point x="825" y="976" type="curve" smooth="no"/>
      <point x="844" y="1097" type="line" smooth="no"/>
      <point x="1024" y="1097" type="line" smooth="no"/>
    </contour>
    <contour>
      <point x="827" y="252" type="curve" smooth="no"/>
      <point x="827" y="844" type="line" smooth="yes"/>
      <point x="827" y="954"/>
      <point x="756" y="990"/>
      <point x="569" y="990" type="curve" smooth="yes"/>
      <point x="472" y="990"/>
      <point x="408" y="981"/>
      <point x="374" y="963" type="curve" smooth="yes"/>
      <point x="327" y="938"/>
      <point x="318" y="820"/>
      <point x="318" y="698" type="curve" smooth="yes"/>
      <point x="318" y="506"/>
      <point x="319" y="377"/>
      <point x="327" y="233" type="curve" smooth="yes"/>
      <point x="332" y="139"/>
      <point x="374" y="122"/>
      <point x="571" y="122" type="curve" smooth="yes"/>
      <point x="766" y="122"/>
      <point x="819" y="151"/>
    </contour>
  </outline>
</glyph>
<glyph name="t" format="1">
  <advance width="690"/>
  <unicode hex="0074"/>
  <outline>
    <contour>
      <point x="587" y="139" type="curve"/>
      <point x="583" y="-1" type="line"/>
      <point x="529" y="-10"/>
      <point x="478" y="-15"/>
      <point x="431" y="-15" type="curve" smooth="yes"/>
      <point x="231" y="-15"/>
      <point x="198" y="77"/>
      <point x="197" y="238" type="curve"/>
      <point x="197" y="985" type="line"/>
      <point x="48" y="985" type="line"/>
      <point x="48" y="1097" type="line"/>
      <point x="197" y="1097" type="line"/>
      <point x="197" y="1409" type="line"/>
      <point x="393" y="1425" type="line"/>
      <point x="393" y="1097" type="line"/>
      <point x="595" y="1097" type="line"/>
      <point x="595" y="985" type="line"/>
      <point x="393" y="985" type="line"/>
      <point x="393" y="305" type="line" smooth="yes"/>
      <point x="393" y="172"/>
      <point x="395" y="133"/>
      <point x="461" y="133" type="curve" smooth="yes"/>
      <point x="503" y="133"/>
      <point x="547" y="136"/>
    </contour>
  </outline>
</glyph>
<glyph name="u" format="1">
  <advance width="1173"/>
  <unicode hex="0075"/>
  <outline>
    <contour>
      <point x="1020" y="-1" type="line"/>
      <point x="838" y="-1" type="line"/>
      <point x="820" y="140" type="line"/>
      <point x="783" y="29"/>
      <point x="651" y="-15"/>
      <point x="493" y="-15" type="curve" smooth="yes"/>
      <point x="209" y="-15"/>
      <point x="150" y="113"/>
      <point x="150" y="454" type="curve" smooth="yes"/>
      <point x="150" y="1097" type="line"/>
      <point x="347" y="1097" type="line"/>
      <point x="347" y="460" type="line" smooth="yes"/>
      <point x="347" y="418"/>
      <point x="346" y="381"/>
      <point x="346" y="348" type="curve" smooth="yes"/>
      <point x="346" y="159"/>
      <point x="362" y="122"/>
      <point x="581" y="122" type="curve" smooth="yes"/>
      <point x="801" y="122"/>
      <point x="822" y="196"/>
      <point x="822" y="303" type="curve" smooth="yes"/>
      <point x="822" y="328"/>
      <point x="821" y="355"/>
      <point x="821" y="383" type="curve" smooth="yes"/>
      <point x="821" y="1097" type="line"/>
      <point x="1020" y="1097" type="line"/>
    </contour>
  </outline>
</glyph>
<glyph name="v" format="1">
  <advance width="1008"/>
  <unicode hex="0076"/>
  <outline>
    <contour>
      <point x="965" y="1097" type="line"/>
      <point x="602" y="0" type="line"/>
      <point x="388" y="0" type="line"/>
      <point x="43" y="1097" type="line"/>
      <point x="228" y="1097" type="line"/>
      <point x="496" y="171" type="line"/>
      <point x="762" y="1097" type="line"/>
    </contour>
  </outline>
</glyph>
<glyph name="x" format="1">
  <advance width="1013"/>
  <unicode hex="0078"/>
  <outline>
    <contour>
      <point x="959" y="0" type="line" smooth="no"/>
      <point x="752" y="0" type="line" smooth="no"/>
      <point x="507" y="430" type="line" smooth="no"/>
      <point x="259" y="0" type="line" smooth="no"/>
      <point x="54" y="0" type="line" smooth="no"/>
      <point x="400" y="565" type="line" smooth="no"/>
      <point x="62" y="1097" type="line" smooth="no"/>
      <point x="268" y="1097" type="line" smooth="no"/>
      <point x="507" y="688" type="line" smooth="no"/>
      <point x="747" y="1097" type="line" smooth="no"/>
      <point x="950" y="1097" type="line" smooth="no"/>
      <point x="617" y="563" type="line" smooth="no"/>
    </contour>
  </outline>
</glyph>
<glyph name="y" format="1">
  <advance width="1038"/>
  <unicode hex="0079"/>
  <outline>
    <contour>
      <point x="1000" y="1097" type="line"/>
      <point x="654" y="53" type="line" smooth="yes"/>
      <point x="580" y="-171"/>
      <point x="584" y="-346"/>
      <point x="364" y="-346" type="curve" smooth="yes"/>
      <point x="292" y="-346"/>
      <point x="220" y="-340"/>
      <point x="148" y="-323" type="curve"/>
      <point x="178" y="-171" type="line"/>
      <point x="233" y="-178"/>
      <point x="284" y="-190"/>
      <point x="328" y="-190" type="curve" smooth="yes"/>
      <point x="406" y="-190"/>
      <point x="458" y="-152"/>
      <point x="459" y="17" type="curve"/>
      <point x="48" y="1097" type="line"/>
      <point x="247" y="1097" type="line"/>
      <point x="449" y="540" type="line" smooth="yes"/>
      <point x="483" y="446"/>
      <point x="520" y="342"/>
      <point x="551" y="253" type="curve"/>
      <point x="580" y="359"/>
      <point x="615" y="477"/>
      <point x="648" y="587" type="curve" smooth="yes"/>
      <point x="799" y="1097" type="line"/>
    </contour>
  </outline>
</glyph>
<glyph name="z" format="1">
  <advance width="861"/>
  <unicode hex="007a"/>
  <outline>
    <contour>
      <point x="783" y="0" type="line" smooth="no"/>
      <point x="93" y="0" type="line" smooth="no"/>
      <point x="76" y="141" type="line" smooth="no"/>
      <point x="589" y="960" type="line" smooth="no"/>
      <point x="122" y="960" type="line" smooth="no"/>
      <point x="113" y="1097" type="line" smooth="no"/>
      <point x="777" y="1097" type="line" smooth="no"/>
      <point x="786" y="960" type="line" smooth="no"/>
      <point x="275" y="135" type="line" smooth="no"/>
      <point x="792" y="135" type="line" smooth="no"/>
    </contour>
  </outline>
</glyph>
<glyph name="exclamdown" format="1">
  <advance width="528"/>
  <unicode hex="00A1"/>
  <outline>
    <contour>
      <point x="414" y="1386" type="curve" smooth="yes"/>
      <point x="414" y="1296"/>
      <point x="356" y="1230"/>
      <point x="265" y="1230" type="curve" smooth="yes"/>
      <point x="180" y="1230"/>
      <point x="117" y="1300"/>
      <point x="117" y="1386" type="curve" smooth="yes"/>
      <point x="117" y="1471"/>
      <point x="172" y="1542"/>
      <point x="265" y="1542" type="curve" smooth="yes"/>
      <point x="349" y="1542"/>
      <point x="414" y="1474"/>
    </contour>
    <contour>
      <point x="298" y="-33" type="curve"/>
      <point x="238" y="-33"/>
      <point x="194" y="-13"/>
      <point x="167" y="25" type="curve"/>
      <point x="158" y="54"/>
      <point x="155" y="88"/>
      <point x="155" y="126" type="curve" smooth="yes"/>
      <point x="155" y="395"/>
      <point x="231" y="942"/>
      <point x="237" y="982" type="curve"/>
      <point x="249" y="991"/>
      <point x="263" y="995"/>
      <point x="279" y="995" type="curve"/>
      <point x="296" y="964"/>
      <point x="372" y="533"/>
      <point x="372" y="250" type="curve" smooth="yes"/>
      <point x="372" y="39"/>
      <point x="368" y="-17"/>
    </contour>
  </outline>
</glyph>
<glyph name="cent" format="1">
  <advance width="1067"/>
  <unicode hex="00a2"/>
  <outline>
    <contour>
      <point x="198" y="200" type="curve" smooth="yes"/>
      <point x="120" y="271"/>
      <point x="115" y="435"/>
      <point x="115" y="647" type="curve" smooth="yes"/>
      <point x="115" y="1163"/>
      <point x="89" y="1305"/>
      <point x="525" y="1311" type="curve" smooth="no"/>
      <point x="525" y="1505" type="line" smooth="no"/>
      <point x="598" y="1505" type="line" smooth="no"/>
      <point x="598" y="1310" type="line" smooth="no"/>
      <point x="914" y="1304"/>
      <point x="999" y="1223"/>
      <point x="999" y="1028" type="curve" smooth="yes"/>
      <point x="999" y="978"/>
      <point x="995" y="938"/>
      <point x="995" y="911" type="curve" smooth="no"/>
      <point x="807" y="911" type="line" smooth="no"/>
      <point x="807" y="963"/>
      <point x="809" y="1004"/>
      <point x="809" y="1037" type="curve" smooth="yes"/>
      <point x="809" y="1149"/>
      <point x="787" y="1163"/>
      <point x="598" y="1165" type="curve" smooth="no"/>
      <point x="598" y="260" type="line" smooth="no"/>
      <point x="632" y="258"/>
      <point x="661" y="256"/>
      <point x="686" y="256" type="curve" smooth="yes"/>
      <point x="776" y="256"/>
      <point x="807" y="288"/>
      <point x="807" y="510" type="curve" smooth="no"/>
      <point x="995" y="510" type="line" smooth="no"/>
      <point x="996" y="493"/>
      <point x="997" y="481"/>
      <point x="997" y="474" type="curve" smooth="yes"/>
      <point x="997" y="219"/>
      <point x="943" y="141"/>
      <point x="677" y="120" type="curve" smooth="yes"/>
      <point x="652" y="118"/>
      <point x="626" y="116"/>
      <point x="598" y="116" type="curve" smooth="no"/>
      <point x="598" y="-72" type="line" smooth="no"/>
      <point x="525" y="-72" type="line" smooth="no"/>
      <point x="525" y="116" type="line" smooth="no"/>
      <point x="364" y="119"/>
      <point x="255" y="147"/>
    </contour>
    <contour>
      <point x="525" y="262" type="curve" smooth="no"/>
      <point x="525" y="1165" type="line" smooth="no"/>
      <point x="497" y="1165"/>
      <point x="472" y="1166"/>
      <point x="451" y="1166" type="curve" smooth="yes"/>
      <point x="324" y="1166"/>
      <point x="310" y="1147"/>
      <point x="310" y="942" type="curve" smooth="yes"/>
      <point x="310" y="841"/>
      <point x="307" y="708"/>
      <point x="307" y="590" type="curve" smooth="yes"/>
      <point x="307" y="466"/>
      <point x="310" y="359"/>
      <point x="322" y="320" type="curve" smooth="yes"/>
      <point x="338" y="267"/>
      <point x="397" y="262"/>
    </contour>
  </outline>
</glyph>
<glyph name="sterling" format="1">
  <advance width="1409"/>
  <unicode hex="00A3"/>
  <outline>
    <contour>
      <point x="1295" y="1077" type="curve"/>
      <point x="1118" y="1054" type="line"/>
      <point x="1115" y="1126"/>
      <point x="1110" y="1199"/>
      <point x="1106" y="1271" type="curve"/>
      <point x="1094" y="1344"/>
      <point x="1029" y="1353"/>
      <point x="809" y="1353" type="curve" smooth="yes"/>
      <point x="465" y="1353"/>
      <point x="439" y="1307"/>
      <point x="439" y="1207" type="curve" smooth="yes"/>
      <point x="439" y="1089"/>
      <point x="450" y="970"/>
      <point x="456" y="847" type="curve"/>
      <point x="1006" y="847" type="line"/>
      <point x="1006" y="701" type="line"/>
      <point x="459" y="701" type="line"/>
      <point x="457" y="546"/>
      <point x="450" y="396"/>
      <point x="435" y="244" type="curve"/>
      <point x="451" y="193"/>
      <point x="556" y="178"/>
      <point x="782" y="178" type="curve" smooth="yes"/>
      <point x="1012" y="178"/>
      <point x="1120" y="188"/>
      <point x="1136" y="255" type="curve"/>
      <point x="1151" y="465" type="line"/>
      <point x="1306" y="437" type="line"/>
      <point x="1287" y="43"/>
      <point x="1263" y="0"/>
      <point x="836" y="0" type="curve" smooth="yes"/>
      <point x="543" y="0"/>
      <point x="366" y="-7"/>
      <point x="333" y="139" type="curve"/>
      <point x="317" y="46"/>
      <point x="240" y="0"/>
      <point x="105" y="0" type="curve"/>
      <point x="105" y="220" type="line"/>
      <point x="232" y="229"/>
      <point x="250" y="245"/>
      <point x="254" y="341" type="curve" smooth="yes"/>
      <point x="257" y="420"/>
      <point x="258" y="578"/>
      <point x="259" y="702" type="curve"/>
      <point x="107" y="702" type="line"/>
      <point x="107" y="848" type="line"/>
      <point x="255" y="848" type="line"/>
      <point x="248" y="938"/>
      <point x="239" y="1023"/>
      <point x="239" y="1112" type="curve" smooth="yes"/>
      <point x="239" y="1488"/>
      <point x="416" y="1542"/>
      <point x="785" y="1542" type="curve" smooth="yes"/>
      <point x="1269" y="1542"/>
      <point x="1275" y="1434"/>
    </contour>
  </outline>
</glyph>
<glyph name="currency" format="1">
  <advance width="1123"/>
  <unicode hex="00a4"/>
  <outline>
    <contour>
      <point x="250" y="773" type="curve" smooth="yes"/>
      <point x="250" y="552"/>
      <point x="344" y="447"/>
      <point x="564" y="447" type="curve" smooth="yes"/>
      <point x="773" y="447"/>
      <point x="877" y="555"/>
      <point x="877" y="772" type="curve" smooth="yes"/>
      <point x="877" y="989"/>
      <point x="787" y="1098"/>
      <point x="564" y="1098" type="curve" smooth="yes"/>
      <point x="355" y="1098"/>
      <point x="250" y="990"/>
    </contour>
    <contour>
      <point x="123" y="287" type="line" smooth="no"/>
      <point x="262" y="457" type="line" smooth="no"/>
      <point x="184" y="531"/>
      <point x="145" y="633"/>
      <point x="145" y="764" type="curve" smooth="yes"/>
      <point x="145" y="894"/>
      <point x="184" y="996"/>
      <point x="262" y="1070" type="curve" smooth="no"/>
      <point x="124" y="1241" type="line" smooth="no"/>
      <point x="187" y="1311" type="line" smooth="no"/>
      <point x="337" y="1130" type="line" smooth="no"/>
      <point x="396" y="1169"/>
      <point x="471" y="1189"/>
      <point x="562" y="1189" type="curve" smooth="yes"/>
      <point x="652" y="1189"/>
      <point x="727" y="1170"/>
      <point x="786" y="1133" type="curve" smooth="no"/>
      <point x="938" y="1310" type="line" smooth="no"/>
      <point x="1002" y="1240" type="line" smooth="no"/>
      <point x="864" y="1071" type="line" smooth="no"/>
      <point x="944" y="996"/>
      <point x="984" y="894"/>
      <point x="984" y="765" type="curve" smooth="yes"/>
      <point x="984" y="636"/>
      <point x="944" y="533"/>
      <point x="864" y="457" type="curve" smooth="no"/>
      <point x="1003" y="287" type="line" smooth="no"/>
      <point x="939" y="218" type="line" smooth="no"/>
      <point x="789" y="397" type="line" smooth="no"/>
      <point x="728" y="365"/>
      <point x="653" y="349"/>
      <point x="564" y="349" type="curve" smooth="yes"/>
      <point x="471" y="349"/>
      <point x="395" y="365"/>
      <point x="336" y="398" type="curve" smooth="no"/>
      <point x="186" y="218" type="line" smooth="no"/>
    </contour>
  </outline>
</glyph>
<glyph name="yen" format="1">
  <advance width="1147"/>
  <unicode hex="00A5"/>
  <outline>
    <contour>
      <point x="916" y="261" type="line"/>
      <point x="172" y="261" type="line"/>
      <point x="172" y="347" type="line"/>
      <point x="916" y="347" type="line"/>
    </contour>
    <contour>
      <point x="963" y="631" type="line"/>
      <point x="963" y="518" type="line"/>
      <point x="125" y="518" type="line"/>
      <point x="125" y="631" type="line"/>
    </contour>
    <contour>
      <point x="1090" y="1490" type="line"/>
      <point x="639" y="518" type="line"/>
      <point x="639" y="0" type="line"/>
      <point x="437" y="0" type="line"/>
      <point x="437" y="518" type="line"/>
      <point x="-1" y="1490" type="line"/>
      <point x="220" y="1490" type="line"/>
      <point x="545" y="727" type="line"/>
      <point x="876" y="1490" type="line"/>
    </contour>
  </outline>
</glyph>
<glyph name="brokenbar" format="1">
  <advance width="510"/>
  <unicode hex="00a6"/>
  <outline>
    <contour>
      <point x="162" y="563" type="line" smooth="no"/>
      <point x="349" y="563" type="line" smooth="no"/>
      <point x="349" y="-249" type="line" smooth="no"/>
      <point x="162" y="-249" type="line" smooth="no"/>
    </contour>
    <contour>
      <point x="162" y="1631" type="line" smooth="no"/>
      <point x="349" y="1631" type="line" smooth="no"/>
      <point x="349" y="819" type="line" smooth="no"/>
      <point x="162" y="819" type="line" smooth="no"/>
    </contour>
  </outline>
</glyph>
<glyph name="copyright" format="1">
  <advance width="1734"/>
  <unicode hex="00A9"/>
  <outline>
    <contour>
      <point x="94" y="762" type="curve" smooth="yes"/>
      <point x="94" y="1272"/>
      <point x="482" y="1532"/>
      <point x="872" y="1532" type="curve" smooth="yes"/>
      <point x="1267" y="1532"/>
      <point x="1648" y="1267"/>
      <point x="1648" y="761" type="curve" smooth="yes"/>
      <point x="1648" y="268"/>
      <point x="1271" y="0"/>
      <point x="881" y="0" type="curve" smooth="yes"/>
      <point x="471" y="0"/>
      <point x="94" y="263"/>
    </contour>
    <contour>
      <point x="207" y="760" type="curve" smooth="yes"/>
      <point x="207" y="325"/>
      <point x="530" y="92"/>
      <point x="861" y="92" type="curve" smooth="yes"/>
      <point x="1214" y="92"/>
      <point x="1535" y="323"/>
      <point x="1535" y="760" type="curve" smooth="yes"/>
      <point x="1535" y="1211"/>
      <point x="1202" y="1438"/>
      <point x="870" y="1438" type="curve" smooth="yes"/>
      <point x="538" y="1438"/>
      <point x="207" y="1212"/>
    </contour>
    <contour>
      <point x="1129" y="644" type="curve"/>
      <point x="1255" y="644" type="line"/>
      <point x="1255" y="283"/>
      <point x="1228" y="226"/>
      <point x="842" y="226" type="curve" smooth="yes"/>
      <point x="486" y="226"/>
      <point x="468" y="332"/>
      <point x="468" y="865" type="curve" smooth="yes"/>
      <point x="468" y="1214"/>
      <point x="514" y="1327"/>
      <point x="852" y="1327" type="curve" smooth="yes"/>
      <point x="1193" y="1327"/>
      <point x="1255" y="1285"/>
      <point x="1255" y="909" type="curve"/>
      <point x="1129" y="909" type="line"/>
      <point x="1127" y="939"/>
      <point x="1127" y="967"/>
      <point x="1127" y="992" type="curve" smooth="yes"/>
      <point x="1127" y="1048" type="line" smooth="yes"/>
      <point x="1127" y="1175"/>
      <point x="1113" y="1212"/>
      <point x="879" y="1212" type="curve" smooth="yes"/>
      <point x="624" y="1212"/>
      <point x="613" y="1187"/>
      <point x="613" y="1064" type="curve" smooth="yes"/>
      <point x="613" y="785" type="line" smooth="yes"/>
      <point x="613" y="667"/>
      <point x="606" y="580"/>
      <point x="606" y="515" type="curve" smooth="yes"/>
      <point x="606" y="370"/>
      <point x="642" y="341"/>
      <point x="879" y="341" type="curve" smooth="yes"/>
      <point x="1164" y="341"/>
      <point x="1117" y="395"/>
    </contour>
  </outline>
</glyph>
<glyph name="ordfeminine" format="1">
  <advance width="998"/>
  <unicode hex="00AA"/>
  <outline>
    <contour>
      <point x="854" y="509" type="line"/>
      <point x="726" y="509" type="line"/>
      <point x="701" y="637" type="line"/>
      <point x="666" y="516"/>
      <point x="576" y="497"/>
      <point x="428" y="497" type="curve" smooth="yes"/>
      <point x="212" y="497"/>
      <point x="158" y="579"/>
      <point x="158" y="797" type="curve" smooth="yes"/>
      <point x="158" y="955"/>
      <point x="345" y="1000"/>
      <point x="622" y="1000" type="curve" smooth="yes"/>
      <point x="646" y="1000"/>
      <point x="671" y="999"/>
      <point x="693" y="999" type="curve"/>
      <point x="693" y="1180" type="line" smooth="yes"/>
      <point x="693" y="1284"/>
      <point x="700" y="1311"/>
      <point x="517" y="1311" type="curve" smooth="yes"/>
      <point x="329" y="1311"/>
      <point x="329" y="1273"/>
      <point x="334" y="1175" type="curve"/>
      <point x="211" y="1179" type="line"/>
      <point x="210" y="1189"/>
      <point x="210" y="1198"/>
      <point x="210" y="1207" type="curve" smooth="yes"/>
      <point x="210" y="1402"/>
      <point x="331" y="1423"/>
      <point x="527" y="1423" type="curve" smooth="yes"/>
      <point x="773" y="1423"/>
      <point x="854" y="1357"/>
      <point x="854" y="1104" type="curve" smooth="yes"/>
    </contour>
    <contour>
      <point x="693" y="804" type="curve"/>
      <point x="693" y="901" type="line"/>
      <point x="366" y="897"/>
      <point x="306" y="871"/>
      <point x="306" y="792" type="curve" smooth="yes"/>
      <point x="306" y="637"/>
      <point x="306" y="608"/>
      <point x="451" y="608" type="curve" smooth="yes"/>
      <point x="667" y="608"/>
      <point x="689" y="693"/>
    </contour>
  </outline>
</glyph>
<glyph name="guillemotleft" format="1">
  <advance width="1234"/>
  <unicode hex="00ab"/>
  <outline>
    <contour>
      <point x="480" y="775" type="line" smooth="no"/>
      <point x="954" y="1199" type="line" smooth="no"/>
      <point x="1049" y="1086" type="line" smooth="no"/>
      <point x="628" y="726" type="line" smooth="no"/>
      <point x="1049" y="366" type="line" smooth="no"/>
      <point x="954" y="253" type="line" smooth="no"/>
      <point x="480" y="677" type="line" smooth="no"/>
    </contour>
    <contour>
      <point x="80" y="775" type="line" smooth="no"/>
      <point x="555" y="1199" type="line" smooth="no"/>
      <point x="650" y="1086" type="line" smooth="no"/>
      <point x="229" y="726" type="line" smooth="no"/>
      <point x="650" y="366" type="line" smooth="no"/>
      <point x="555" y="253" type="line" smooth="no"/>
      <point x="80" y="677" type="line" smooth="no"/>
    </contour>
  </outline>
</glyph>
<glyph name="logicalnot" format="1">
  <advance width="1128"/>
  <unicode hex="00ac"/>
  <outline>
    <contour>
      <point x="102" y="797" type="line" smooth="no"/>
      <point x="1026" y="797" type="line" smooth="no"/>
      <point x="1026" y="262" type="line" smooth="no"/>
      <point x="877" y="262" type="line" smooth="no"/>
      <point x="877" y="647" type="line" smooth="no"/>
      <point x="102" y="647" type="line" smooth="no"/>
    </contour>
  </outline>
</glyph>
<glyph name="uni00AD" format="1">
  <advance width="1050"/>
  <unicode hex="00ad"/>
  <outline>
    <contour>
      <point x="920" y="728" type="line" smooth="no"/>
      <point x="920" y="549" type="line" smooth="no"/>
      <point x="134" y="549" type="line" smooth="no"/>
      <point x="134" y="728" type="line" smooth="no"/>
    </contour>
  </outline>
</glyph>
<glyph name="registered" format="1">
  <advance width="1734"/>
  <unicode hex="00AE"/>
  <outline>
    <contour>
      <point x="870" y="0" type="curve" smooth="yes"/>
      <point x="465" y="0"/>
      <point x="94" y="271"/>
      <point x="94" y="762" type="curve" smooth="yes"/>
      <point x="94" y="1272"/>
      <point x="482" y="1532"/>
      <point x="872" y="1532" type="curve" smooth="yes"/>
      <point x="1267" y="1532"/>
      <point x="1648" y="1267"/>
      <point x="1648" y="761" type="curve" smooth="yes"/>
      <point x="1648" y="260"/>
      <point x="1264" y="0"/>
    </contour>
    <contour>
      <point x="872" y="92" type="curve" smooth="yes"/>
      <point x="1220" y="92"/>
      <point x="1535" y="331"/>
      <point x="1535" y="760" type="curve" smooth="yes"/>
      <point x="1535" y="1211"/>
      <point x="1202" y="1438"/>
      <point x="870" y="1438" type="curve" smooth="yes"/>
      <point x="538" y="1438"/>
      <point x="207" y="1212"/>
      <point x="207" y="760" type="curve" smooth="yes"/>
      <point x="207" y="317"/>
      <point x="537" y="92"/>
    </contour>
    <contour>
      <point x="555" y="267" type="line"/>
      <point x="555" y="1288" type="line"/>
      <point x="879" y="1288" type="line" smooth="yes"/>
      <point x="1153" y="1288"/>
      <point x="1234" y="1248"/>
      <point x="1241" y="1021" type="curve"/>
      <point x="1241" y="874"/>
      <point x="1184" y="796"/>
      <point x="1071" y="788" type="curve"/>
      <point x="1170" y="783"/>
      <point x="1233" y="718"/>
      <point x="1233" y="609" type="curve" smooth="yes"/>
      <point x="1233" y="268" type="line"/>
      <point x="1099" y="268" type="line"/>
      <point x="1099" y="339"/>
      <point x="1103" y="424"/>
      <point x="1103" y="501" type="curve" smooth="yes"/>
      <point x="1103" y="612"/>
      <point x="1095" y="705"/>
      <point x="1058" y="721" type="curve" smooth="yes"/>
      <point x="1035" y="731"/>
      <point x="1000" y="734"/>
      <point x="946" y="734" type="curve" smooth="yes"/>
      <point x="682" y="734" type="line"/>
      <point x="682" y="578"/>
      <point x="683" y="423"/>
      <point x="683" y="267" type="curve"/>
    </contour>
    <contour>
      <point x="682" y="1183" type="line"/>
      <point x="682" y="832" type="line"/>
      <point x="879" y="832" type="line" smooth="yes"/>
      <point x="1070" y="832"/>
      <point x="1097" y="854"/>
      <point x="1104" y="1007" type="curve"/>
      <point x="1104" y="1191"/>
      <point x="1036" y="1183"/>
      <point x="877" y="1183" type="curve" smooth="yes"/>
    </contour>
  </outline>
</glyph>
<glyph name="macron" format="1">
  <advance width="846"/>
  <unicode hex="00AF"/>
  <outline>
    <contour>
      <point x="129" y="838" type="line"/>
      <point x="726" y="838" type="line"/>
      <point x="726" y="711" type="line"/>
      <point x="129" y="711" type="line"/>
    </contour>
  </outline>
</glyph>
<glyph name="degree" format="1">
  <advance width="829"/>
  <unicode hex="00b0"/>
  <outline>
    <contour>
      <point x="289" y="1321" type="curve" smooth="yes"/>
      <point x="289" y="1234"/>
      <point x="337" y="1155"/>
      <point x="419" y="1155" type="curve" smooth="yes"/>
      <point x="501" y="1155"/>
      <point x="551" y="1234"/>
      <point x="551" y="1321" type="curve" smooth="yes"/>
      <point x="551" y="1408"/>
      <point x="501" y="1486"/>
      <point x="418" y="1486" type="curve" smooth="yes"/>
      <point x="339" y="1486"/>
      <point x="289" y="1409"/>
    </contour>
    <contour>
      <point x="111" y="1322" type="curve" smooth="yes"/>
      <point x="111" y="1486"/>
      <point x="257" y="1597"/>
      <point x="419" y="1597" type="curve" smooth="yes"/>
      <point x="581" y="1597"/>
      <point x="726" y="1483"/>
      <point x="726" y="1321" type="curve" smooth="yes"/>
      <point x="726" y="1159"/>
      <point x="584" y="1046"/>
      <point x="419" y="1046" type="curve" smooth="yes"/>
      <point x="254" y="1046"/>
      <point x="111" y="1159"/>
    </contour>
  </outline>
</glyph>
<glyph name="plusminus" format="1">
  <advance width="1128"/>
  <unicode hex="00b1"/>
  <outline>
    <contour>
      <point x="489" y="262" type="line" smooth="no"/>
      <point x="489" y="647" type="line" smooth="no"/>
      <point x="102" y="647" type="line" smooth="no"/>
      <point x="102" y="797" type="line" smooth="no"/>
      <point x="489" y="797" type="line" smooth="no"/>
      <point x="489" y="1186" type="line" smooth="no"/>
      <point x="639" y="1186" type="line" smooth="no"/>
      <point x="639" y="797" type="line" smooth="no"/>
      <point x="1026" y="797" type="line" smooth="no"/>
      <point x="1026" y="647" type="line" smooth="no"/>
      <point x="639" y="647" type="line" smooth="no"/>
      <point x="639" y="262" type="line" smooth="no"/>
    </contour>
    <contour>
      <point x="1026" y="0" type="line" smooth="no"/>
      <point x="102" y="0" type="line" smooth="no"/>
      <point x="102" y="150" type="line" smooth="no"/>
      <point x="1026" y="150" type="line" smooth="no"/>
    </contour>
  </outline>
</glyph>
<glyph name="uni00B3" format="1">
  <advance width="923"/>
  <unicode hex="00b3"/>
  <outline>
    <contour>
      <point x="813" y="589" type="curve" smooth="no"/>
      <point x="813" y="309"/>
      <point x="673" y="247"/>
      <point x="421" y="247" type="curve" smooth="yes"/>
      <point x="211" y="247"/>
      <point x="90" y="287"/>
      <point x="90" y="468" type="curve" smooth="yes"/>
      <point x="90" y="482"/>
      <point x="90" y="498"/>
      <point x="91" y="517" type="curve" smooth="no"/>
      <point x="216" y="535" type="line" smooth="no"/>
      <point x="218" y="508"/>
      <point x="220" y="479"/>
      <point x="223" y="452" type="curve" smooth="yes"/>
      <point x="232" y="377"/>
      <point x="294" y="356"/>
      <point x="440" y="356" type="curve" smooth="yes"/>
      <point x="671" y="356"/>
      <point x="671" y="388"/>
      <point x="671" y="592" type="curve" smooth="yes"/>
      <point x="671" y="808"/>
      <point x="600" y="807"/>
      <point x="369" y="807" type="curve" smooth="no"/>
      <point x="363" y="918" type="line" smooth="no"/>
      <point x="429" y="918"/>
      <point x="459" y="918"/>
      <point x="489" y="919" type="curve" smooth="yes"/>
      <point x="670" y="924"/>
      <point x="665" y="997"/>
      <point x="665" y="1178" type="curve" smooth="yes"/>
      <point x="665" y="1295"/>
      <point x="638" y="1332"/>
      <point x="446" y="1332" type="curve" smooth="yes"/>
      <point x="288" y="1332"/>
      <point x="237" y="1312"/>
      <point x="232" y="1242" type="curve" smooth="yes"/>
      <point x="225" y="1156" type="line" smooth="no"/>
      <point x="104" y="1180" type="line" smooth="no"/>
      <point x="104" y="1202" type="line" smooth="yes"/>
      <point x="104" y="1376"/>
      <point x="154" y="1436"/>
      <point x="456" y="1440" type="curve" smooth="no"/>
      <point x="699" y="1440"/>
      <point x="806" y="1352"/>
      <point x="806" y="1148" type="curve" smooth="yes"/>
      <point x="806" y="881"/>
      <point x="667" y="869"/>
      <point x="640" y="863" type="curve" smooth="no"/>
      <point x="674" y="856"/>
      <point x="811" y="830"/>
    </contour>
  </outline>
</glyph>
<glyph name="paragraph" format="1">
  <advance width="1060"/>
  <unicode hex="00b6"/>
  <outline>
    <contour>
      <point x="417" y="0" type="line" smooth="no"/>
      <point x="417" y="845" type="line" smooth="no"/>
      <point x="190" y="845"/>
      <point x="60" y="955"/>
      <point x="60" y="1190" type="curve" smooth="yes"/>
      <point x="60" y="1445"/>
      <point x="221" y="1521"/>
      <point x="508" y="1521" type="curve" smooth="yes"/>
      <point x="895" y="1521" type="line" smooth="no"/>
      <point x="895" y="0" type="line" smooth="no"/>
      <point x="742" y="0" type="line" smooth="no"/>
      <point x="742" y="844" type="line" smooth="no"/>
      <point x="571" y="844" type="line" smooth="no"/>
      <point x="571" y="0" type="line" smooth="no"/>
    </contour>
  </outline>
</glyph>
<glyph name="periodcentered" format="1">
  <advance width="526"/>
  <unicode hex="00B7"/>
  <outline>
    <contour>
      <point x="265" y="528" type="curve" smooth="yes"/>
      <point x="184" y="528"/>
      <point x="125" y="596"/>
      <point x="125" y="682" type="curve" smooth="yes"/>
      <point x="125" y="771"/>
      <point x="177" y="836"/>
      <point x="265" y="836" type="curve" smooth="yes"/>
      <point x="347" y="836"/>
      <point x="405" y="769"/>
      <point x="405" y="682" type="curve" smooth="yes"/>
      <point x="405" y="594"/>
      <point x="353" y="528"/>
    </contour>
  </outline>
</glyph>
<glyph name="cedilla" format="1">
  <advance width="723"/>
  <unicode hex="00b8"/>
  <outline>
    <contour>
      <point x="329" y="0" type="line" smooth="no"/>
      <point x="438" y="0" type="line" smooth="no"/>
      <point x="389" y="-168" type="line" smooth="no"/>
      <point x="521" y="-186"/>
      <point x="608" y="-214"/>
      <point x="608" y="-364" type="curve" smooth="yes"/>
      <point x="608" y="-490"/>
      <point x="491" y="-552"/>
      <point x="363" y="-552" type="curve" smooth="yes"/>
      <point x="278" y="-552"/>
      <point x="187" y="-524"/>
      <point x="124" y="-470" type="curve" smooth="no"/>
      <point x="171" y="-380" type="line" smooth="no"/>
      <point x="191" y="-389"/>
      <point x="275" y="-430"/>
      <point x="333" y="-430" type="curve" smooth="yes"/>
      <point x="367" y="-430"/>
      <point x="392" y="-416"/>
      <point x="392" y="-376" type="curve" smooth="yes"/>
      <point x="392" y="-318"/>
      <point x="346" y="-289"/>
      <point x="254" y="-289" type="curve" smooth="no"/>
      <point x="258" y="-271"/>
      <point x="270" y="-223"/>
      <point x="291" y="-144" type="curve" smooth="yes"/>
    </contour>
  </outline>
</glyph>
<glyph name="uni00B9" format="1">
  <advance width="510"/>
  <unicode hex="00b9"/>
  <outline>
    <contour>
      <point x="364" y="240" type="line" smooth="no"/>
      <point x="214" y="240" type="line" smooth="no"/>
      <point x="214" y="1235" type="line" smooth="no"/>
      <point x="66" y="1235" type="line" smooth="no"/>
      <point x="66" y="1309" type="line" smooth="no"/>
      <point x="148" y="1312"/>
      <point x="208" y="1349"/>
      <point x="240" y="1425" type="curve" smooth="no"/>
      <point x="364" y="1425" type="line" smooth="no"/>
    </contour>
  </outline>
</glyph>
<glyph name="ordmasculine" format="1">
  <advance width="953"/>
  <unicode hex="00ba"/>
  <outline>
    <contour>
      <point x="481" y="1319" type="curve" smooth="yes"/>
      <point x="483" y="1319" type="line" smooth="yes"/>
      <point x="790" y="1319"/>
      <point x="826" y="1249"/>
      <point x="826" y="895" type="curve" smooth="yes"/>
      <point x="826" y="558"/>
      <point x="803" y="471"/>
      <point x="481" y="471" type="curve" smooth="yes"/>
      <point x="161" y="471"/>
      <point x="138" y="558"/>
      <point x="138" y="895" type="curve" smooth="yes"/>
      <point x="138" y="1249"/>
      <point x="174" y="1319"/>
    </contour>
    <contour>
      <point x="482" y="575" type="curve" smooth="no"/>
      <point x="614" y="578"/>
      <point x="669" y="588"/>
      <point x="670" y="643" type="curve" smooth="no"/>
      <point x="675" y="723"/>
      <point x="678" y="805"/>
      <point x="678" y="892" type="curve" smooth="yes"/>
      <point x="678" y="978"/>
      <point x="670" y="1063"/>
      <point x="670" y="1143" type="curve" smooth="yes"/>
      <point x="670" y="1206"/>
      <point x="581" y="1216"/>
      <point x="482" y="1216" type="curve" smooth="yes"/>
      <point x="383" y="1216"/>
      <point x="294" y="1206"/>
      <point x="294" y="1143" type="curve" smooth="yes"/>
      <point x="294" y="1063"/>
      <point x="286" y="978"/>
      <point x="286" y="892" type="curve" smooth="yes"/>
      <point x="286" y="805"/>
      <point x="289" y="723"/>
      <point x="294" y="643" type="curve" smooth="no"/>
      <point x="295" y="588"/>
      <point x="350" y="578"/>
    </contour>
  </outline>
</glyph>
<glyph name="guillemotright" format="1">
  <advance width="1234"/>
  <unicode hex="00bb"/>
  <outline>
    <contour>
      <point x="700" y="775" type="line" smooth="no"/>
      <point x="700" y="677" type="line" smooth="no"/>
      <point x="226" y="253" type="line" smooth="no"/>
      <point x="130" y="366" type="line" smooth="no"/>
      <point x="552" y="726" type="line" smooth="no"/>
      <point x="130" y="1086" type="line" smooth="no"/>
      <point x="226" y="1199" type="line" smooth="no"/>
    </contour>
    <contour>
      <point x="1099" y="775" type="line" smooth="no"/>
      <point x="1099" y="677" type="line" smooth="no"/>
      <point x="624" y="253" type="line" smooth="no"/>
      <point x="530" y="366" type="line" smooth="no"/>
      <point x="950" y="726" type="line" smooth="no"/>
      <point x="530" y="1086" type="line" smooth="no"/>
      <point x="624" y="1199" type="line" smooth="no"/>
    </contour>
  </outline>
</glyph>
<glyph name="onequarter" format="1">
  <advance width="829"/>
  <unicode hex="00BC"/>
  <outline>
    <contour>
      <point x="366" y="0" type="line"/>
      <point x="366" y="152" type="line"/>
      <point x="152" y="152" type="line"/>
      <point x="114" y="220" type="line"/>
      <point x="345" y="616" type="line"/>
      <point x="457" y="616" type="line"/>
      <point x="457" y="220" type="line"/>
      <point x="559" y="220" type="line"/>
      <point x="559" y="152" type="line"/>
      <point x="457" y="152" type="line"/>
      <point x="457" y="0" type="line"/>
    </contour>
    <contour>
      <point x="337" y="898" type="line"/>
      <point x="337" y="1378" type="line"/>
      <point x="268" y="1378" type="line"/>
      <point x="268" y="1431" type="line"/>
      <point x="320" y="1431"/>
      <point x="350" y="1458"/>
      <point x="350" y="1499" type="curve"/>
      <point x="428" y="1499" type="line"/>
      <point x="428" y="898" type="line"/>
    </contour>
    <contour>
      <point x="75" y="805" type="line"/>
      <point x="695" y="805" type="line"/>
      <point x="695" y="734" type="line"/>
      <point x="75" y="734" type="line"/>
    </contour>
    <contour>
      <point x="366" y="220" type="line"/>
      <point x="366" y="544" type="line"/>
      <point x="342" y="498"/>
      <point x="285" y="390"/>
      <point x="194" y="220" type="curve"/>
    </contour>
  </outline>
</glyph>
<glyph name="onehalf" format="1">
  <advance width="828"/>
  <unicode hex="00bd"/>
  <outline>
    <contour>
      <point x="161" y="0" type="line" smooth="no"/>
      <point x="161" y="75" type="line" smooth="yes"/>
      <point x="161" y="314"/>
      <point x="465" y="229"/>
      <point x="465" y="494" type="curve" smooth="yes"/>
      <point x="465" y="572"/>
      <point x="456" y="573"/>
      <point x="343" y="573" type="curve" smooth="yes"/>
      <point x="280" y="573"/>
      <point x="248" y="572"/>
      <point x="248" y="498" type="curve" smooth="no"/>
      <point x="251" y="463" type="line" smooth="no"/>
      <point x="168" y="470" type="line" smooth="no"/>
      <point x="164" y="495"/>
      <point x="162" y="512"/>
      <point x="162" y="522" type="curve" smooth="yes"/>
      <point x="162" y="621"/>
      <point x="246" y="646"/>
      <point x="357" y="646" type="curve" smooth="yes"/>
      <point x="496" y="646"/>
      <point x="557" y="624"/>
      <point x="557" y="484" type="curve" smooth="yes"/>
      <point x="557" y="223"/>
      <point x="378" y="270"/>
      <point x="275" y="138" type="curve" smooth="yes"/>
      <point x="261" y="120"/>
      <point x="252" y="99"/>
      <point x="252" y="72" type="curve" smooth="no"/>
      <point x="547" y="72" type="line" smooth="no"/>
      <point x="547" y="0" type="line" smooth="no"/>
    </contour>
    <contour>
      <point x="301" y="898" type="line" smooth="no"/>
      <point x="301" y="1378" type="line" smooth="no"/>
      <point x="232" y="1378" type="line" smooth="no"/>
      <point x="232" y="1431" type="line" smooth="no"/>
      <point x="284" y="1431"/>
      <point x="314" y="1458"/>
      <point x="314" y="1499" type="curve" smooth="no"/>
      <point x="392" y="1499" type="line" smooth="no"/>
      <point x="392" y="898" type="line" smooth="no"/>
    </contour>
    <contour>
      <point x="49" y="805" type="line" smooth="no"/>
      <point x="669" y="805" type="line" smooth="no"/>
      <point x="669" y="734" type="line" smooth="no"/>
      <point x="49" y="734" type="line" smooth="no"/>
    </contour>
  </outline>
</glyph>
<glyph name="threequarters" format="1">
  <advance width="868"/>
  <unicode hex="00BE"/>
  <outline>
    <contour>
      <point x="369" y="0" type="line"/>
      <point x="369" y="152" type="line"/>
      <point x="155" y="152" type="line"/>
      <point x="117" y="220" type="line"/>
      <point x="348" y="616" type="line"/>
      <point x="460" y="616" type="line"/>
      <point x="460" y="220" type="line"/>
      <point x="562" y="220" type="line"/>
      <point x="562" y="152" type="line"/>
      <point x="460" y="152" type="line"/>
      <point x="460" y="0" type="line"/>
    </contour>
    <contour>
      <point x="225" y="1063" type="curve"/>
      <point x="292" y="1063" type="line"/>
      <point x="292" y="997"/>
      <point x="285" y="979"/>
      <point x="380" y="979" type="curve" smooth="yes"/>
      <point x="474" y="979"/>
      <point x="497" y="989"/>
      <point x="497" y="1047" type="curve" smooth="yes"/>
      <point x="497" y="1186"/>
      <point x="477" y="1185"/>
      <point x="357" y="1185" type="curve"/>
      <point x="354" y="1238" type="line"/>
      <point x="359" y="1238"/>
      <point x="374" y="1237"/>
      <point x="381" y="1237" type="curve" smooth="yes"/>
      <point x="487" y="1237"/>
      <point x="496" y="1264"/>
      <point x="496" y="1306" type="curve" smooth="yes"/>
      <point x="496" y="1395"/>
      <point x="494" y="1416"/>
      <point x="400" y="1416" type="curve" smooth="yes"/>
      <point x="316" y="1416"/>
      <point x="292" y="1408"/>
      <point x="292" y="1377" type="curve"/>
      <point x="294" y="1331" type="line"/>
      <point x="235" y="1331" type="line"/>
      <point x="235" y="1331"/>
      <point x="227" y="1357"/>
      <point x="227" y="1383" type="curve" smooth="yes"/>
      <point x="227" y="1455"/>
      <point x="269" y="1481"/>
      <point x="405" y="1481" type="curve" smooth="yes"/>
      <point x="527" y="1481"/>
      <point x="576" y="1437"/>
      <point x="576" y="1329" type="curve" smooth="yes"/>
      <point x="576" y="1222"/>
      <point x="504" y="1211"/>
      <point x="484" y="1210" type="curve"/>
      <point x="505" y="1207"/>
      <point x="576" y="1189"/>
      <point x="576" y="1068" type="curve" smooth="yes"/>
      <point x="576" y="947"/>
      <point x="511" y="915"/>
      <point x="399" y="915" type="curve" smooth="yes"/>
      <point x="281" y="915"/>
      <point x="222" y="929"/>
      <point x="222" y="1014" type="curve" smooth="yes"/>
      <point x="222" y="1022"/>
      <point x="223" y="1038"/>
    </contour>
    <contour>
      <point x="79" y="804" type="line"/>
      <point x="699" y="804" type="line"/>
      <point x="699" y="733" type="line"/>
      <point x="79" y="733" type="line"/>
    </contour>
    <contour>
      <point x="369" y="220" type="line"/>
      <point x="369" y="544" type="line"/>
      <point x="345" y="498"/>
      <point x="288" y="390"/>
      <point x="197" y="220" type="curve"/>
    </contour>
  </outline>
</glyph>
<glyph name="questiondown" format="1">
  <advance width="767"/>
  <unicode hex="00bf"/>
  <outline>
    <contour>
      <point x="608" y="1379" type="curve" smooth="yes"/>
      <point x="608" y="1292"/>
      <point x="554" y="1225"/>
      <point x="467" y="1225" type="curve" smooth="yes"/>
      <point x="384" y="1225"/>
      <point x="324" y="1288"/>
      <point x="324" y="1379" type="curve" smooth="yes"/>
      <point x="324" y="1465"/>
      <point x="378" y="1533"/>
      <point x="466" y="1533" type="curve" smooth="yes"/>
      <point x="550" y="1533"/>
      <point x="608" y="1461"/>
    </contour>
    <contour>
      <point x="702" y="223" type="curve" smooth="no"/>
      <point x="741" y="59" type="line" smooth="no"/>
      <point x="627" y="4"/>
      <point x="526" y="-22"/>
      <point x="438" y="-22" type="curve" smooth="yes"/>
      <point x="197" y="-22"/>
      <point x="66" y="101"/>
      <point x="66" y="338" type="curve" smooth="yes"/>
      <point x="66" y="473"/>
      <point x="147" y="590"/>
      <point x="247" y="704" type="curve" smooth="no"/>
      <point x="362" y="846"/>
      <point x="394" y="869"/>
      <point x="409" y="1020" type="curve" smooth="no"/>
      <point x="443" y="1020"/>
      <point x="478" y="1019"/>
      <point x="511" y="1019" type="curve" smooth="no"/>
      <point x="510" y="808"/>
      <point x="445" y="717"/>
      <point x="332" y="552" type="curve" smooth="yes"/>
      <point x="283" y="481"/>
      <point x="262" y="435"/>
      <point x="262" y="350" type="curve" smooth="yes"/>
      <point x="262" y="233"/>
      <point x="329" y="166"/>
      <point x="463" y="166" type="curve" smooth="yes"/>
      <point x="513" y="166"/>
      <point x="591" y="186"/>
    </contour>
  </outline>
</glyph>
<glyph name="AE" format="1">
  <advance width="1967"/>
  <unicode hex="00c6"/>
  <outline>
    <contour>
      <point x="1856" y="0" type="line" smooth="no"/>
      <point x="981" y="0" type="line" smooth="no"/>
      <point x="981" y="381" type="line" smooth="no"/>
      <point x="433" y="381" type="line" smooth="no"/>
      <point x="211" y="0" type="line" smooth="no"/>
      <point x="20" y="0" type="line" smooth="no"/>
      <point x="906" y="1490" type="line" smooth="no"/>
      <point x="1837" y="1490" type="line" smooth="no"/>
      <point x="1837" y="1323" type="line" smooth="no"/>
      <point x="1182" y="1323" type="line" smooth="no"/>
      <point x="1182" y="864" type="line" smooth="no"/>
      <point x="1726" y="864" type="line" smooth="no"/>
      <point x="1726" y="697" type="line" smooth="no"/>
      <point x="1182" y="697" type="line" smooth="no"/>
      <point x="1182" y="167" type="line" smooth="no"/>
      <point x="1856" y="167" type="line" smooth="no"/>
    </contour>
    <contour>
      <point x="982" y="1342" type="curve" smooth="no"/>
      <point x="787" y="995" type="line" smooth="no"/>
      <point x="518" y="523" type="line" smooth="no"/>
      <point x="981" y="523" type="line" smooth="no"/>
      <point x="981" y="937" type="line" smooth="yes"/>
      <point x="981.333" y="1073.33"/>
      <point x="981.667" y="1208.33"/>
    </contour>
  </outline>
</glyph>
<glyph name="Oslash" format="1">
  <advance width="1438"/>
  <unicode hex="00d8"/>
  <outline>
    <contour>
      <point x="1060" y="1759" type="line" smooth="no"/>
      <point x="469" y="-300" type="line" smooth="no"/>
      <point x="336" y="-300" type="line" smooth="no"/>
      <point x="927" y="1759" type="line" smooth="no"/>
    </contour>
    <contour>
      <point x="715" y="-24" type="curve" smooth="yes"/>
      <point x="145" y="-24"/>
      <point x="137" y="139"/>
      <point x="137" y="812" type="curve" smooth="yes"/>
      <point x="137" y="1367"/>
      <point x="216" y="1514"/>
      <point x="715" y="1514" type="curve" smooth="yes"/>
      <point x="1188" y="1514"/>
      <point x="1293" y="1378"/>
      <point x="1293" y="876" type="curve" smooth="yes"/>
      <point x="1293" y="149"/>
      <point x="1302" y="-24"/>
    </contour>
    <contour>
      <point x="715" y="1360" type="curve" smooth="yes"/>
      <point x="381" y="1360"/>
      <point x="352" y="1313"/>
      <point x="344" y="1097" type="curve" smooth="no"/>
      <point x="342" y="974"/>
      <point x="341" y="850"/>
      <point x="341" y="725" type="curve" smooth="yes"/>
      <point x="341" y="470"/>
      <point x="339" y="197"/>
      <point x="447" y="159" type="curve" smooth="no"/>
      <point x="490" y="134"/>
      <point x="599" y="130"/>
      <point x="715" y="130" type="curve" smooth="yes"/>
      <point x="831" y="130"/>
      <point x="940" y="134"/>
      <point x="983" y="159" type="curve" smooth="no"/>
      <point x="1087" y="196"/>
      <point x="1089" y="451"/>
      <point x="1089" y="697" type="curve" smooth="yes"/>
      <point x="1089" y="832"/>
      <point x="1088" y="965"/>
      <point x="1086" y="1097" type="curve" smooth="no"/>
      <point x="1078" y="1313"/>
      <point x="1049" y="1360"/>
    </contour>
  </outline>
</glyph>
<glyph name="Thorn" format="1">
  <advance width="1293"/>
  <unicode hex="00de"/>
  <outline>
    <contour>
      <point x="1176" y="832" type="curve" smooth="yes"/>
      <point x="1176" y="439"/>
      <point x="951" y="381"/>
      <point x="736" y="381" type="curve" smooth="yes"/>
      <point x="684" y="381"/>
      <point x="634" y="383"/>
      <point x="589" y="383" type="curve" smooth="yes"/>
      <point x="371" y="383" type="line" smooth="no"/>
      <point x="371" y="0" type="line" smooth="no"/>
      <point x="171" y="0" type="line" smooth="no"/>
      <point x="171" y="1489" type="line" smooth="no"/>
      <point x="371" y="1489" type="line" smooth="no"/>
      <point x="371" y="1284" type="line" smooth="no"/>
      <point x="616" y="1284" type="line" smooth="yes"/>
      <point x="1040" y="1284"/>
      <point x="1176" y="1213"/>
    </contour>
    <contour>
      <point x="977" y="832" type="curve" smooth="yes"/>
      <point x="977" y="1102"/>
      <point x="935" y="1120"/>
      <point x="603" y="1120" type="curve" smooth="yes"/>
      <point x="371" y="1120" type="line" smooth="no"/>
      <point x="371" y="551" type="line" smooth="no"/>
      <point x="694" y="551" type="line" smooth="yes"/>
      <point x="981" y="551"/>
      <point x="977" y="635"/>
    </contour>
  </outline>
</glyph>
<glyph name="germandbls" format="1">
  <advance width="1235"/>
  <unicode hex="00df"/>
  <outline>
    <contour>
      <point x="1117" y="401" type="curve" smooth="yes"/>
      <point x="1117" y="9"/>
      <point x="855" y="0"/>
      <point x="476" y="0" type="curve" smooth="no"/>
      <point x="476" y="162" type="line" smooth="no"/>
      <point x="555" y="162"/>
      <point x="648" y="160"/>
      <point x="708" y="160" type="curve" smooth="yes"/>
      <point x="896" y="160"/>
      <point x="919" y="183"/>
      <point x="919" y="522" type="curve" smooth="yes"/>
      <point x="919" y="738"/>
      <point x="869" y="737"/>
      <point x="506" y="737" type="curve" smooth="no"/>
      <point x="506" y="890" type="line" smooth="no"/>
      <point x="587" y="890"/>
      <point x="646" y="885"/>
      <point x="693" y="885" type="curve" smooth="yes"/>
      <point x="834" y="885"/>
      <point x="844" y="925"/>
      <point x="844" y="1200" type="curve" smooth="yes"/>
      <point x="844" y="1303"/>
      <point x="822" y="1337"/>
      <point x="584" y="1337" type="curve" smooth="yes"/>
      <point x="343" y="1337"/>
      <point x="357" y="1337"/>
      <point x="357" y="916" type="curve" smooth="yes"/>
      <point x="357" y="554"/>
      <point x="358" y="192"/>
      <point x="358" y="-169" type="curve" smooth="no"/>
      <point x="159" y="-185" type="line" smooth="no"/>
      <point x="159" y="77"/>
      <point x="152" y="347"/>
      <point x="152" y="613" type="curve" smooth="yes"/>
      <point x="152" y="788"/>
      <point x="154" y="962"/>
      <point x="165" y="1132" type="curve" smooth="yes"/>
      <point x="182" y="1417"/>
      <point x="289" y="1497"/>
      <point x="600" y="1497" type="curve" smooth="yes"/>
      <point x="906" y="1497"/>
      <point x="1037" y="1410"/>
      <point x="1037" y="1141" type="curve" smooth="yes"/>
      <point x="1037" y="947"/>
      <point x="985" y="841"/>
      <point x="885" y="827" type="curve" smooth="no"/>
      <point x="1014" y="818"/>
      <point x="1117" y="698"/>
    </contour>
  </outline>
</glyph>
<glyph name="oslash" format="1">
  <advance width="1175"/>
  <unicode hex="00f8"/>
  <outline>
    <contour>
      <point x="582" y="-15" type="curve" smooth="yes"/>
      <point x="580" y="-15" type="line" smooth="yes"/>
      <point x="558" y="-15"/>
      <point x="536" y="-15"/>
      <point x="516" y="-14" type="curve" smooth="no"/>
      <point x="476" y="-200" type="line" smooth="no"/>
      <point x="383" y="-200" type="line" smooth="no"/>
      <point x="424" y="-8" type="line" smooth="no"/>
      <point x="138" y="23"/>
      <point x="119" y="163"/>
      <point x="119" y="558" type="curve" smooth="yes"/>
      <point x="119" y="1035"/>
      <point x="165" y="1128"/>
      <point x="581" y="1128" type="curve" smooth="yes"/>
      <point x="612" y="1128"/>
      <point x="640" y="1127"/>
      <point x="667" y="1126" type="curve" smooth="no"/>
      <point x="704" y="1299" type="line" smooth="no"/>
      <point x="797" y="1299" type="line" smooth="no"/>
      <point x="758" y="1119" type="line" smooth="no"/>
      <point x="1010" y="1087"/>
      <point x="1043" y="956"/>
      <point x="1043" y="558" type="curve" smooth="yes"/>
      <point x="1043" y="101"/>
      <point x="1017" y="-15"/>
    </contour>
    <contour>
      <point x="454" y="130" type="curve" smooth="no"/>
      <point x="638" y="989" type="line" smooth="no"/>
      <point x="581" y="989" type="line" smooth="yes"/>
      <point x="462" y="989"/>
      <point x="326" y="989"/>
      <point x="326" y="895" type="curve" smooth="yes"/>
      <point x="326" y="782"/>
      <point x="316" y="667"/>
      <point x="316" y="546" type="curve" smooth="yes"/>
      <point x="316" y="437"/>
      <point x="319" y="319"/>
      <point x="327" y="215" type="curve" smooth="no"/>
      <point x="327" y="161"/>
      <point x="367" y="140"/>
    </contour>
    <contour>
      <point x="545" y="124" type="line" smooth="no"/>
      <point x="556" y="124"/>
      <point x="568" y="123"/>
      <point x="580" y="123" type="curve" smooth="yes"/>
      <point x="582" y="123" type="line" smooth="no"/>
      <point x="759" y="127"/>
      <point x="835" y="140"/>
      <point x="835" y="215" type="curve" smooth="no"/>
      <point x="843" y="319"/>
      <point x="846" y="437"/>
      <point x="846" y="546" type="curve" smooth="yes"/>
      <point x="846" y="667"/>
      <point x="836" y="782"/>
      <point x="836" y="895" type="curve" smooth="yes"/>
      <point x="836" y="949"/>
      <point x="790" y="972"/>
      <point x="729" y="982" type="curve" smooth="no"/>
    </contour>
  </outline>
</glyph>
<glyph name="Dcroat" format="1">
  <advance width="1444"/>
  <unicode hex="0110"/>
  <outline>
    <contour>
      <point x="1278" y="876" type="curve" smooth="yes"/>
      <point x="1278" y="53"/>
      <point x="1233" y="0"/>
      <point x="533" y="0" type="curve" smooth="yes"/>
      <point x="171" y="0" type="line" smooth="no"/>
      <point x="171" y="689" type="line" smooth="no"/>
      <point x="78" y="689" type="line" smooth="no"/>
      <point x="78" y="826" type="line" smooth="no"/>
      <point x="171" y="826" type="line" smooth="no"/>
      <point x="171" y="1490" type="line" smooth="no"/>
      <point x="687" y="1490" type="line" smooth="yes"/>
      <point x="1173" y="1490"/>
      <point x="1278" y="1371"/>
    </contour>
    <contour>
      <point x="1077" y="873" type="line" smooth="yes"/>
      <point x="1077" y="1259"/>
      <point x="1077" y="1336"/>
      <point x="584" y="1336" type="curve" smooth="yes"/>
      <point x="374" y="1336" type="line" smooth="no"/>
      <point x="374" y="826" type="line" smooth="no"/>
      <point x="642" y="826" type="line" smooth="no"/>
      <point x="642" y="689" type="line" smooth="no"/>
      <point x="374" y="689" type="line" smooth="no"/>
      <point x="374" y="153" type="line" smooth="no"/>
      <point x="614" y="153" type="line" smooth="yes"/>
      <point x="1008" y="153"/>
      <point x="1077" y="168"/>
      <point x="1077" y="620" type="curve" smooth="yes"/>
    </contour>
  </outline>
</glyph>
<glyph name="dcroat" format="1">
  <advance width="1209"/>
  <unicode hex="0111"/>
  <outline>
    <contour>
      <point x="113" y="371" type="curve" smooth="yes"/>
      <point x="113" y="778" type="line" smooth="yes"/>
      <point x="113" y="1030"/>
      <point x="225" y="1133"/>
      <point x="510" y="1133" type="curve" smooth="yes"/>
      <point x="694" y="1133"/>
      <point x="780" y="1089"/>
      <point x="818" y="986" type="curve"/>
      <point x="818" y="1261" type="line"/>
      <point x="561" y="1261" type="line"/>
      <point x="561" y="1364" type="line"/>
      <point x="818" y="1364" type="line"/>
      <point x="818" y="1542" type="line"/>
      <point x="1013" y="1542" type="line"/>
      <point x="1013" y="1364" type="line"/>
      <point x="1158" y="1364" type="line"/>
      <point x="1158" y="1261" type="line"/>
      <point x="1013" y="1261" type="line"/>
      <point x="1013" y="0" type="line"/>
      <point x="838" y="0" type="line"/>
      <point x="816" y="144" type="line"/>
      <point x="783" y="39"/>
      <point x="674" y="-14"/>
      <point x="490" y="-14" type="curve" smooth="yes"/>
      <point x="192" y="-14"/>
      <point x="113" y="100"/>
    </contour>
    <contour>
      <point x="560" y="1005" type="curve" smooth="yes"/>
      <point x="367" y="1005"/>
      <point x="308" y="1000"/>
      <point x="308" y="879" type="curve" smooth="yes"/>
      <point x="308" y="221" type="line" smooth="yes"/>
      <point x="308" y="134"/>
      <point x="351" y="114"/>
      <point x="559" y="114" type="curve" smooth="yes"/>
      <point x="759" y="114"/>
      <point x="818" y="138"/>
      <point x="818" y="246" type="curve" smooth="yes"/>
      <point x="818" y="866" type="line" smooth="yes"/>
      <point x="818" y="981"/>
      <point x="771" y="1005"/>
    </contour>
  </outline>
</glyph>
<glyph name="gcedilla" format="1">
  <advance width="1169"/>
  <unicode hex="0123"/>
  <outline>
    <contour>
      <point x="1009" y="1097" type="line"/>
      <point x="1009" y="139" type="line" smooth="yes"/>
      <point x="1009" y="-235"/>
      <point x="945" y="-357"/>
      <point x="574" y="-357" type="curve" smooth="yes"/>
      <point x="445" y="-357"/>
      <point x="341" y="-344"/>
      <point x="262" y="-316" type="curve"/>
      <point x="275" y="-180" type="line"/>
      <point x="347" y="-200"/>
      <point x="435" y="-211"/>
      <point x="541" y="-211" type="curve" smooth="yes"/>
      <point x="789" y="-211"/>
      <point x="812" y="-148"/>
      <point x="812" y="-48" type="curve" smooth="yes"/>
      <point x="812" y="-25"/>
      <point x="811" y="0"/>
      <point x="811" y="26" type="curve" smooth="yes"/>
      <point x="811" y="131" type="line"/>
      <point x="775" y="38"/>
      <point x="693" y="-3"/>
      <point x="532" y="-3" type="curve" smooth="yes"/>
      <point x="129" y="-3"/>
      <point x="115" y="174"/>
      <point x="115" y="524" type="curve" smooth="yes"/>
      <point x="115" y="976"/>
      <point x="130" y="1125"/>
      <point x="486" y="1125" type="curve" smooth="yes"/>
      <point x="657" y="1125"/>
      <point x="762" y="1082"/>
      <point x="811" y="975" type="curve"/>
      <point x="830" y="1097" type="line"/>
    </contour>
    <contour>
      <point x="812" y="223" type="curve"/>
      <point x="812" y="833" type="line" smooth="yes"/>
      <point x="812" y="942"/>
      <point x="754" y="990"/>
      <point x="558" y="990" type="curve" smooth="yes"/>
      <point x="462" y="990"/>
      <point x="399" y="981"/>
      <point x="366" y="965" type="curve" smooth="yes"/>
      <point x="318" y="942"/>
      <point x="310" y="845"/>
      <point x="310" y="746" type="curve" smooth="yes"/>
      <point x="310" y="567"/>
      <point x="312" y="403"/>
      <point x="318" y="242" type="curve"/>
      <point x="324" y="152"/>
      <point x="365" y="134"/>
      <point x="579" y="134" type="curve" smooth="yes"/>
      <point x="684" y="134"/>
      <point x="804" y="151"/>
    </contour>
    <contour>
      <point x="569" y="1819" type="curve" smooth="yes"/>
      <point x="674" y="1819"/>
      <point x="741" y="1734"/>
      <point x="741" y="1603" type="curve" smooth="yes"/>
      <point x="741" y="1431"/>
      <point x="608" y="1268"/>
      <point x="428" y="1268" type="curve"/>
      <point x="428" y="1328" type="line"/>
      <point x="505" y="1331"/>
      <point x="556" y="1401"/>
      <point x="556" y="1493" type="curve"/>
      <point x="461" y="1498"/>
      <point x="414" y="1554"/>
      <point x="414" y="1663" type="curve" smooth="yes"/>
      <point x="414" y="1720"/>
      <point x="472" y="1819"/>
    </contour>
  </outline>
</glyph>
<glyph name="Hbar" format="1">
  <advance width="1406"/>
  <unicode hex="0126"/>
  <outline>
    <contour>
      <point x="1243" y="0" type="line" smooth="no"/>
      <point x="1040" y="0" type="line" smooth="no"/>
      <point x="1040" y="684" type="line" smooth="no"/>
      <point x="374" y="684" type="line" smooth="no"/>
      <point x="374" y="0" type="line" smooth="no"/>
      <point x="171" y="0" type="line" smooth="no"/>
      <point x="171" y="1083" type="line" smooth="no"/>
      <point x="93" y="1083" type="line" smooth="no"/>
      <point x="93" y="1189" type="line" smooth="no"/>
      <point x="171" y="1189" type="line" smooth="no"/>
      <point x="171" y="1490" type="line" smooth="no"/>
      <point x="374" y="1490" type="line" smooth="no"/>
      <point x="374" y="1189" type="line" smooth="no"/>
      <point x="1040" y="1189" type="line" smooth="no"/>
      <point x="1040" y="1490" type="line" smooth="no"/>
      <point x="1243" y="1490" type="line" smooth="no"/>
      <point x="1243" y="1189" type="line" smooth="no"/>
      <point x="1320" y="1189" type="line" smooth="no"/>
      <point x="1320" y="1083" type="line" smooth="no"/>
      <point x="1243" y="1083" type="line" smooth="no"/>
    </contour>
    <contour>
      <point x="374" y="1083" type="line" smooth="no"/>
      <point x="374" y="842" type="line" smooth="no"/>
      <point x="1040" y="842" type="line" smooth="no"/>
      <point x="1040" y="1083" type="line" smooth="no"/>
    </contour>
  </outline>
</glyph>
<glyph name="hbar" format="1">
  <advance width="1195"/>
  <unicode hex="0127"/>
  <outline>
    <contour>
      <point x="1061" y="0" type="line"/>
      <point x="864" y="0" type="line"/>
      <point x="864" y="666" type="line" smooth="yes"/>
      <point x="864" y="733"/>
      <point x="865" y="787"/>
      <point x="865" y="830" type="curve" smooth="yes"/>
      <point x="865" y="952"/>
      <point x="837" y="990"/>
      <point x="614" y="990" type="curve" smooth="yes"/>
      <point x="514" y="990"/>
      <point x="403" y="969"/>
      <point x="397" y="896" type="curve" smooth="yes"/>
      <point x="389" y="793"/>
      <point x="383" y="684"/>
      <point x="383" y="572" type="curve" smooth="yes"/>
      <point x="383" y="0" type="line"/>
      <point x="185" y="0" type="line"/>
      <point x="185" y="1245" type="line"/>
      <point x="36" y="1245" type="line"/>
      <point x="36" y="1372" type="line"/>
      <point x="185" y="1372" type="line"/>
      <point x="185" y="1486" type="line"/>
      <point x="383" y="1502" type="line"/>
      <point x="383" y="1372" type="line"/>
      <point x="633" y="1372" type="line"/>
      <point x="633" y="1245" type="line"/>
      <point x="383" y="1245" type="line"/>
      <point x="383" y="1014" type="line"/>
      <point x="431" y="1090"/>
      <point x="532" y="1128"/>
      <point x="681" y="1128" type="curve"/>
      <point x="1035" y="1120"/>
      <point x="1061" y="990"/>
      <point x="1061" y="756" type="curve" smooth="yes"/>
    </contour>
  </outline>
</glyph>
<glyph name="dotlessi" format="1">
  <advance width="533"/>
  <unicode hex="0131"/>
  <outline>
    <contour>
      <point x="364" y="0" type="line" smooth="no"/>
      <point x="167" y="0" type="line" smooth="no"/>
      <point x="167" y="1097" type="line" smooth="no"/>
      <point x="364" y="1097" type="line" smooth="no"/>
    </contour>
  </outline>
</glyph>
<glyph name="kgreenlandic" format="1">
  <advance width="1115"/>
  <unicode hex="0138"/>
  <outline>
    <contour>
      <point x="1055" y="0" type="line" smooth="no"/>
      <point x="838" y="0" type="line" smooth="no"/>
      <point x="456" y="542" type="line" smooth="no"/>
      <point x="364" y="439" type="line" smooth="no"/>
      <point x="364" y="0" type="line" smooth="no"/>
      <point x="166" y="0" type="line" smooth="no"/>
      <point x="166" y="1082" type="line" smooth="no"/>
      <point x="364" y="1098" type="line" smooth="no"/>
      <point x="364" y="752" type="line" smooth="yes"/>
      <point x="364" y="702"/>
      <point x="363" y="644"/>
      <point x="363" y="595" type="curve" smooth="no"/>
      <point x="419" y="655"/>
      <point x="477" y="720"/>
      <point x="534" y="782" type="curve" smooth="no"/>
      <point x="795" y="1097" type="line" smooth="no"/>
      <point x="1019" y="1097" type="line" smooth="no"/>
      <point x="606" y="628" type="line" smooth="no"/>
    </contour>
  </outline>
</glyph>
<glyph name="Lslash" format="1">
  <advance width="1070"/>
  <unicode hex="0141"/>
  <outline>
    <contour>
      <point x="990" y="0" type="line" smooth="no"/>
      <point x="213" y="0" type="line" smooth="no"/>
      <point x="213" y="610" type="line" smooth="no"/>
      <point x="79" y="540" type="line" smooth="no"/>
      <point x="79" y="733" type="line" smooth="no"/>
      <point x="213" y="803" type="line" smooth="no"/>
      <point x="213" y="1490" type="line" smooth="no"/>
      <point x="416" y="1490" type="line" smooth="no"/>
      <point x="416" y="907" type="line" smooth="no"/>
      <point x="713" y="1060" type="line" smooth="no"/>
      <point x="713" y="867" type="line" smooth="no"/>
      <point x="416" y="714" type="line" smooth="no"/>
      <point x="416" y="171" type="line" smooth="no"/>
      <point x="990" y="171" type="line" smooth="no"/>
    </contour>
  </outline>
</glyph>
<glyph name="lslash" format="1">
  <advance width="682"/>
  <unicode hex="0142"/>
  <outline>
    <contour>
      <point x="583" y="848" type="line" smooth="no"/>
      <point x="421" y="751" type="line" smooth="no"/>
      <point x="421" y="0" type="line" smooth="no"/>
      <point x="225" y="0" type="line" smooth="no"/>
      <point x="225" y="635" type="line" smooth="no"/>
      <point x="71" y="545" type="line" smooth="no"/>
      <point x="71" y="738" type="line" smooth="no"/>
      <point x="225" y="829" type="line" smooth="no"/>
      <point x="225" y="1528" type="line" smooth="no"/>
      <point x="421" y="1544" type="line" smooth="no"/>
      <point x="421" y="945" type="line" smooth="no"/>
      <point x="583" y="1041" type="line" smooth="no"/>
    </contour>
  </outline>
</glyph>
<glyph name="OE" format="1">
  <advance width="2066"/>
  <unicode hex="0152"/>
  <outline>
    <contour>
      <point x="1933" y="0" type="line"/>
      <point x="715" y="0" type="line" smooth="yes"/>
      <point x="145" y="0"/>
      <point x="137" y="158"/>
      <point x="137" y="812" type="curve" smooth="yes"/>
      <point x="137" y="1348"/>
      <point x="216" y="1490"/>
      <point x="715" y="1490" type="curve" smooth="yes"/>
      <point x="1924" y="1490" type="line"/>
      <point x="1944" y="1336" type="line"/>
      <point x="1292" y="1336" type="line"/>
      <point x="1292" y="857" type="line"/>
      <point x="1849" y="857" type="line"/>
      <point x="1849" y="695" type="line"/>
      <point x="1292" y="695" type="line"/>
      <point x="1292" y="153" type="line"/>
      <point x="1953" y="153" type="line"/>
    </contour>
    <contour>
      <point x="715" y="1337" type="line" smooth="yes"/>
      <point x="381" y="1337"/>
      <point x="352" y="1294"/>
      <point x="344" y="1097" type="curve"/>
      <point x="342" y="974"/>
      <point x="341" y="850"/>
      <point x="341" y="725" type="curve" smooth="yes"/>
      <point x="341" y="481"/>
      <point x="339" y="219"/>
      <point x="447" y="183" type="curve"/>
      <point x="490" y="158"/>
      <point x="599" y="154"/>
      <point x="715" y="154" type="curve" smooth="yes"/>
      <point x="1089" y="154" type="line"/>
      <point x="1089" y="1337" type="line"/>
    </contour>
  </outline>
</glyph>
<glyph name="florin" format="1">
  <advance width="715"/>
  <unicode hex="0192"/>
  <outline>
    <contour>
      <point x="618" y="1543" type="curve" smooth="no"/>
      <point x="618" y="1389" type="line" smooth="no"/>
      <point x="592" y="1391"/>
      <point x="566" y="1392"/>
      <point x="540" y="1392" type="curve" smooth="yes"/>
      <point x="409" y="1392"/>
      <point x="409" y="1372"/>
      <point x="409" y="1256" type="curve" smooth="yes"/>
      <point x="410" y="887" type="line" smooth="no"/>
      <point x="608" y="887" type="line" smooth="no"/>
      <point x="608" y="757" type="line" smooth="no"/>
      <point x="410" y="757" type="line" smooth="no"/>
      <point x="410" y="-56" type="line" smooth="yes"/>
      <point x="410" y="-222"/>
      <point x="383" y="-315"/>
      <point x="197" y="-319" type="curve" smooth="yes"/>
      <point x="169" y="-319"/>
      <point x="135" y="-315"/>
      <point x="45" y="-299" type="curve" smooth="no"/>
      <point x="45" y="-167" type="line" smooth="no"/>
      <point x="213" y="-167" type="line" smooth="no"/>
      <point x="213" y="757" type="line" smooth="no"/>
      <point x="51" y="757" type="line" smooth="no"/>
      <point x="51" y="887" type="line" smooth="no"/>
      <point x="213" y="887" type="line" smooth="no"/>
      <point x="212" y="1259" type="line" smooth="yes"/>
      <point x="211" y="1484"/>
      <point x="280" y="1561"/>
      <point x="442" y="1561" type="curve" smooth="yes"/>
      <point x="495" y="1561"/>
      <point x="555" y="1555"/>
    </contour>
  </outline>
</glyph>
<glyph name="uni0237" format="1">
  <advance width="515"/>
  <unicode hex="0237"/>
  <outline>
    <contour>
      <point x="345" y="1097" type="line" smooth="no"/>
      <point x="345" y="61" type="line" smooth="yes"/>
      <point x="345" y="-200"/>
      <point x="288" y="-302"/>
      <point x="90" y="-302" type="curve" smooth="yes"/>
      <point x="59" y="-302"/>
      <point x="23" y="-299"/>
      <point x="-16" y="-294" type="curve" smooth="no"/>
      <point x="-21" y="-172" type="line" smooth="no"/>
      <point x="60" y="-168"/>
      <point x="148" y="-188"/>
      <point x="148" y="-64" type="curve" smooth="yes"/>
      <point x="148" y="1097" type="line" smooth="no"/>
    </contour>
  </outline>
</glyph>
<glyph name="circumflex" format="1">
  <advance width="801"/>
  <unicode hex="02c6"/>
  <outline>
    <contour>
      <point x="407" y="1627" type="line" smooth="no"/>
      <point x="176" y="1391" type="line" smooth="no"/>
      <point x="121" y="1445" type="line" smooth="no"/>
      <point x="313" y="1754" type="line" smooth="no"/>
      <point x="339" y="1793"/>
      <point x="371" y="1806"/>
      <point x="407" y="1806" type="curve" smooth="yes"/>
      <point x="443" y="1806"/>
      <point x="475" y="1793"/>
      <point x="501" y="1754" type="curve" smooth="no"/>
      <point x="693" y="1445" type="line" smooth="no"/>
      <point x="638" y="1391" type="line" smooth="no"/>
    </contour>
  </outline>
</glyph>
<glyph name="caron" format="1">
  <advance width="801"/>
  <unicode hex="02c7"/>
  <outline>
    <contour>
      <point x="176" y="1806" type="line" smooth="no"/>
      <point x="407" y="1570" type="line" smooth="no"/>
      <point x="638" y="1806" type="line" smooth="no"/>
      <point x="693" y="1752" type="line" smooth="no"/>
      <point x="501" y="1443" type="line" smooth="no"/>
      <point x="475" y="1404"/>
      <point x="443" y="1391"/>
      <point x="407" y="1391" type="curve" smooth="yes"/>
      <point x="371" y="1391"/>
      <point x="339" y="1404"/>
      <point x="313" y="1443" type="curve" smooth="no"/>
      <point x="121" y="1752" type="line" smooth="no"/>
    </contour>
  </outline>
</glyph>
<glyph name="dotaccent" format="1">
  <advance width="447"/>
  <unicode hex="02d9"/>
  <outline>
    <contour>
      <point x="128" y="1207" type="line" smooth="no"/>
      <point x="128" y="1283"/>
      <point x="129" y="1359"/>
      <point x="129" y="1435" type="curve" smooth="no"/>
      <point x="325" y="1435" type="line" smooth="no"/>
      <point x="325" y="1359"/>
      <point x="326" y="1283"/>
      <point x="326" y="1207" type="curve" smooth="no"/>
    </contour>
  </outline>
</glyph>
<glyph name="uni030F" format="1">
  <advance width="1126"/>
  <unicode hex="030f"/>
  <outline>
    <contour>
      <point x="707" y="1605" type="curve" smooth="no"/>
      <point x="746" y="1574"/>
      <point x="1003" y="1308"/>
      <point x="1003" y="1308" type="curve" smooth="no"/>
      <point x="986" y="1287" type="line" smooth="yes"/>
      <point x="986" y="1288"/>
      <point x="616" y="1425"/>
      <point x="591" y="1436" type="curve" smooth="yes"/>
      <point x="542" y="1457"/>
      <point x="520" y="1501"/>
      <point x="520" y="1540" type="curve" smooth="yes"/>
      <point x="520" y="1591"/>
      <point x="557" y="1640"/>
      <point x="623" y="1640" type="curve" smooth="yes"/>
      <point x="655" y="1640"/>
      <point x="684" y="1625"/>
    </contour>
    <contour>
      <point x="278" y="1605" type="curve" smooth="no"/>
      <point x="317" y="1574"/>
      <point x="574" y="1308"/>
      <point x="574" y="1308" type="curve" smooth="no"/>
      <point x="557" y="1287" type="line" smooth="yes"/>
      <point x="557" y="1288"/>
      <point x="187" y="1425"/>
      <point x="162" y="1436" type="curve" smooth="yes"/>
      <point x="113" y="1457"/>
      <point x="91" y="1501"/>
      <point x="91" y="1540" type="curve" smooth="yes"/>
      <point x="91" y="1591"/>
      <point x="128" y="1640"/>
      <point x="194" y="1640" type="curve" smooth="yes"/>
      <point x="226" y="1640"/>
      <point x="255" y="1625"/>
    </contour>
  </outline>
</glyph>
<glyph name="emdash" format="1">
  <advance width="1785"/>
  <unicode hex="2014"/>
  <outline>
    <contour>
      <point x="1659" y="580" type="line" smooth="no"/>
      <point x="131" y="580" type="line" smooth="no"/>
      <point x="131" y="768" type="line" smooth="no"/>
      <point x="1659" y="768" type="line" smooth="no"/>
    </contour>
  </outline>
</glyph>
<glyph name="quoteleft" format="1">
  <advance width="525"/>
  <unicode hex="2018"/>
  <outline>
    <contour>
      <point x="416" y="1484" type="line" smooth="no"/>
      <point x="331" y="1484"/>
      <point x="279" y="1387"/>
      <point x="279" y="1285" type="curve" smooth="no"/>
      <point x="367" y="1285"/>
      <point x="411" y="1235"/>
      <point x="411" y="1135" type="curve" smooth="yes"/>
      <point x="411" y="1081"/>
      <point x="358" y="1000"/>
      <point x="271" y="1000" type="curve" smooth="yes"/>
      <point x="169" y="1000"/>
      <point x="118" y="1067"/>
      <point x="118" y="1202" type="curve" smooth="yes"/>
      <point x="118" y="1386"/>
      <point x="251" y="1552"/>
      <point x="416" y="1552" type="curve" smooth="no"/>
    </contour>
  </outline>
</glyph>
<glyph name="quoteright" format="1">
  <advance width="525"/>
  <unicode hex="2019"/>
  <outline>
    <contour>
      <point x="123" y="1068" type="line"/>
      <point x="209" y="1068"/>
      <point x="260" y="1163"/>
      <point x="260" y="1267" type="curve"/>
      <point x="172" y="1267"/>
      <point x="128" y="1317"/>
      <point x="128" y="1417" type="curve" smooth="yes"/>
      <point x="128" y="1474"/>
      <point x="177" y="1552"/>
      <point x="288" y="1552" type="curve" smooth="yes"/>
      <point x="371" y="1552"/>
      <point x="422" y="1466"/>
      <point x="422" y="1350" type="curve" smooth="yes"/>
      <point x="422" y="1175"/>
      <point x="292" y="1000"/>
      <point x="123" y="1000" type="curve"/>
    </contour>
  </outline>
</glyph>
<glyph name="quotesinglbase" format="1">
  <advance width="408"/>
  <unicode hex="201A"/>
  <outline>
    <contour>
      <point x="200" y="-270" type="line"/>
      <point x="200" y="-270"/>
      <point x="125" y="85"/>
      <point x="125" y="164" type="curve" smooth="yes"/>
      <point x="125" y="261"/>
      <point x="139" y="301"/>
      <point x="212" y="301" type="curve" smooth="yes"/>
      <point x="268" y="301"/>
      <point x="298" y="261"/>
      <point x="298" y="179" type="curve" smooth="yes"/>
      <point x="298" y="96"/>
      <point x="225" y="-276"/>
      <point x="225" y="-276" type="curve"/>
    </contour>
  </outline>
</glyph>
<glyph name="quotedblright" format="1">
  <advance width="1005"/>
  <unicode hex="201d"/>
  <outline>
    <contour>
      <point x="602" y="1068" type="line" smooth="no"/>
      <point x="689" y="1068"/>
      <point x="740" y="1160"/>
      <point x="740" y="1267" type="curve" smooth="no"/>
      <point x="651" y="1267"/>
      <point x="607" y="1317"/>
      <point x="607" y="1417" type="curve" smooth="yes"/>
      <point x="607" y="1471"/>
      <point x="655" y="1552"/>
      <point x="768" y="1552" type="curve" smooth="yes"/>
      <point x="851" y="1552"/>
      <point x="902" y="1466"/>
      <point x="902" y="1350" type="curve" smooth="yes"/>
      <point x="902" y="1175"/>
      <point x="773" y="1000"/>
      <point x="602" y="1000" type="curve" smooth="no"/>
    </contour>
    <contour>
      <point x="123" y="1068" type="line" smooth="no"/>
      <point x="209" y="1068"/>
      <point x="260" y="1163"/>
      <point x="260" y="1267" type="curve" smooth="no"/>
      <point x="172" y="1267"/>
      <point x="128" y="1317"/>
      <point x="128" y="1417" type="curve" smooth="yes"/>
      <point x="128" y="1474"/>
      <point x="177" y="1552"/>
      <point x="288" y="1552" type="curve" smooth="yes"/>
      <point x="369" y="1552"/>
      <point x="425" y="1465"/>
      <point x="425" y="1350" type="curve" smooth="yes"/>
      <point x="425" y="1175"/>
      <point x="293" y="1000"/>
      <point x="123" y="1000" type="curve" smooth="no"/>
    </contour>
  </outline>
</glyph>
<glyph name="quotedblbase" format="1">
  <advance width="693"/>
  <unicode hex="201e"/>
  <outline>
    <contour>
      <point x="200" y="-270" type="line" smooth="no"/>
      <point x="200" y="-270"/>
      <point x="125" y="85"/>
      <point x="125" y="164" type="curve" smooth="yes"/>
      <point x="125" y="261"/>
      <point x="139" y="301"/>
      <point x="212" y="301" type="curve" smooth="yes"/>
      <point x="268" y="301"/>
      <point x="298" y="261"/>
      <point x="298" y="179" type="curve" smooth="yes"/>
      <point x="298" y="96"/>
      <point x="225" y="-276"/>
      <point x="225" y="-276" type="curve" smooth="no"/>
    </contour>
    <contour>
      <point x="484" y="-270" type="line" smooth="no"/>
      <point x="484" y="-270"/>
      <point x="409" y="85"/>
      <point x="409" y="164" type="curve" smooth="yes"/>
      <point x="409" y="261"/>
      <point x="423" y="301"/>
      <point x="496" y="301" type="curve" smooth="yes"/>
      <point x="552" y="301"/>
      <point x="582" y="261"/>
      <point x="582" y="179" type="curve" smooth="yes"/>
      <point x="582" y="96"/>
      <point x="509" y="-276"/>
      <point x="509" y="-276" type="curve" smooth="no"/>
    </contour>
  </outline>
</glyph>
<glyph name="ellipsis" format="1">
  <advance width="1606"/>
  <unicode hex="2026"/>
  <outline>
    <contour>
      <point x="1358" y="-37" type="curve" smooth="yes"/>
      <point x="1275" y="-37"/>
      <point x="1218" y="24"/>
      <point x="1218" y="117" type="curve" smooth="yes"/>
      <point x="1218" y="211"/>
      <point x="1269" y="271"/>
      <point x="1372" y="271" type="curve" smooth="yes"/>
      <point x="1442" y="271"/>
      <point x="1498" y="195"/>
      <point x="1498" y="117" type="curve" smooth="yes"/>
      <point x="1498" y="29"/>
      <point x="1446" y="-37"/>
    </contour>
    <contour>
      <point x="664" y="118" type="curve" smooth="yes"/>
      <point x="664" y="204"/>
      <point x="721" y="271"/>
      <point x="804" y="271" type="curve" smooth="yes"/>
      <point x="887" y="271"/>
      <point x="945" y="210"/>
      <point x="945" y="117" type="curve" smooth="yes"/>
      <point x="945" y="29"/>
      <point x="894" y="-37"/>
      <point x="806" y="-37" type="curve" smooth="yes"/>
      <point x="722" y="-37"/>
      <point x="664" y="34"/>
    </contour>
    <contour>
      <point x="252" y="-37" type="curve" smooth="yes"/>
      <point x="170" y="-37"/>
      <point x="111" y="29"/>
      <point x="111" y="117" type="curve" smooth="yes"/>
      <point x="111" y="204"/>
      <point x="162" y="271"/>
      <point x="252" y="271" type="curve" smooth="yes"/>
      <point x="334" y="271"/>
      <point x="392" y="201"/>
      <point x="392" y="117" type="curve" smooth="yes"/>
      <point x="392" y="29"/>
      <point x="340" y="-37"/>
    </contour>
  </outline>
</glyph>
<glyph name="guilsinglleft" format="1">
  <advance width="725"/>
  <unicode hex="2039"/>
  <outline>
    <contour>
      <point x="80" y="742" type="line" smooth="no"/>
      <point x="555" y="1166" type="line" smooth="no"/>
      <point x="650" y="1053" type="line" smooth="no"/>
      <point x="229" y="693" type="line" smooth="no"/>
      <point x="650" y="333" type="line" smooth="no"/>
      <point x="555" y="220" type="line" smooth="no"/>
      <point x="80" y="644" type="line" smooth="no"/>
    </contour>
  </outline>
</glyph>
<glyph name="guilsinglright" format="1">
  <advance width="729"/>
  <unicode hex="203a"/>
  <outline>
    <contour>
      <point x="650" y="742" type="line" smooth="no"/>
      <point x="650" y="644" type="line" smooth="no"/>
      <point x="175" y="220" type="line" smooth="no"/>
      <point x="80" y="333" type="line" smooth="no"/>
      <point x="501" y="693" type="line" smooth="no"/>
      <point x="80" y="1053" type="line" smooth="no"/>
      <point x="175" y="1166" type="line" smooth="no"/>
    </contour>
  </outline>
</glyph>
<glyph name="fraction" format="1">
  <advance width="748"/>
  <unicode hex="2044"/>
  <outline>
    <contour>
      <point x="764" y="1490" type="line" smooth="no"/>
      <point x="115" y="0" type="line" smooth="no"/>
      <point x="-25" y="0" type="line" smooth="no"/>
      <point x="621" y="1490" type="line" smooth="no"/>
    </contour>
  </outline>
</glyph>
<glyph name="Euro" format="1">
  <advance width="1439"/>
  <unicode hex="20ac"/>
  <outline>
    <component base="C"/>
    <contour>
      <point x="58" y="823" type="line" smooth="no"/>
      <point x="58" y="927" type="line" smooth="no"/>
      <point x="972" y="928" type="line" smooth="no"/>
      <point x="972" y="823" type="line" smooth="no"/>
    </contour>
    <contour>
      <point x="58" y="650" type="line" smooth="no"/>
      <point x="972" y="650" type="line" smooth="no"/>
      <point x="972" y="549" type="line" smooth="no"/>
      <point x="58" y="549" type="line" smooth="no"/>
    </contour>
  </outline>
</glyph>
<glyph name="trademark" format="1">
  <advance width="1125"/>
  <unicode hex="2122"/>
  <outline>
    <contour>
      <point x="515" y="990" type="line"/>
      <point x="515" y="1521" type="line"/>
      <point x="634" y="1521" type="line"/>
      <point x="758" y="1132" type="line"/>
      <point x="874" y="1521" type="line"/>
      <point x="993" y="1521" type="line"/>
      <point x="993" y="990" type="line"/>
      <point x="897" y="990" type="line"/>
      <point x="897" y="1346" type="line"/>
      <point x="790" y="990" type="line"/>
      <point x="706" y="990" type="line"/>
      <point x="601" y="1346" type="line"/>
      <point x="601" y="990" type="line"/>
    </contour>
    <contour>
      <point x="205" y="990" type="line"/>
      <point x="205" y="1448" type="line"/>
      <point x="83" y="1448" type="line"/>
      <point x="83" y="1521" type="line"/>
      <point x="429" y="1521" type="line"/>
      <point x="429" y="1448" type="line"/>
      <point x="307" y="1448" type="line"/>
      <point x="307" y="990" type="line"/>
    </contour>
  </outline>
</glyph>
<glyph name="uniFB02" format="1">
  <advance width="1189"/>
  <unicode hex="fb02"/>
  <outline>
    <contour>
      <point x="1021" y="0" type="line" smooth="no"/>
      <point x="824" y="0" type="line" smooth="no"/>
      <point x="824" y="1372" type="line" smooth="no"/>
      <point x="760" y="1379"/>
      <point x="596" y="1394"/>
      <point x="512" y="1394" type="curve" smooth="yes"/>
      <point x="440" y="1394"/>
      <point x="398" y="1360"/>
      <point x="398" y="1235" type="curve" smooth="yes"/>
      <point x="398" y="1200"/>
      <point x="399" y="1155"/>
      <point x="399" y="1097" type="curve" smooth="no"/>
      <point x="597" y="1097" type="line" smooth="no"/>
      <point x="597" y="984" type="line" smooth="no"/>
      <point x="399" y="984" type="line" smooth="no"/>
      <point x="399" y="0" type="line" smooth="no"/>
      <point x="202" y="0" type="line" smooth="no"/>
      <point x="202" y="984" type="line" smooth="no"/>
      <point x="73" y="984" type="line" smooth="no"/>
      <point x="73" y="1097" type="line" smooth="no"/>
      <point x="202" y="1097" type="line" smooth="no"/>
      <point x="202" y="1416"/>
      <point x="211" y="1522"/>
      <point x="503" y="1522" type="curve" smooth="yes"/>
      <point x="659" y="1522"/>
      <point x="818" y="1506"/>
      <point x="1021" y="1482" type="curve" smooth="no"/>
    </contour>
  </outline>
</glyph>
